  <svg width="519" height="567" viewBox="0 0 519 567" fill="none" xmlns="http://www.w3.org/2000/svg">
<!-- <path d="M426.671 596.925C349.878 727.555 192.436 757.277 54.0872 722.134C-105.334 673.813 -170.538 504.69 -125.016 354.504C-82.7835 215.172 83.0818 253.358 220.438 237.496C474.794 210.19 573.649 365.918 426.671 596.925Z" fill="#C5BAFF"/> -->
<g clip-path="url(#clip0)">
<path d="M470.5 0H436.6C425.554 0 416.6 8.95431 416.6 20V53.9C416.6 64.9457 425.554 73.9 436.6 73.9H470.5C481.546 73.9 490.5 64.9457 490.5 53.9V20C490.5 8.95431 481.546 0 470.5 0Z" fill="#24CCA7"/>
<path d="M454.7 11.8999C456.1 11.8999 457.2 12.9999 457.2 14.3999V15.6999C460.6 16.0999 463.6 17.1999 466.3 18.8999C467.2 19.3999 468.1 20.2999 468.1 21.6999C468.1 23.4999 466.6 24.8999 464.8 24.8999C464.2 24.8999 463.6 24.6999 463 24.3999C461 23.1999 459 22.2999 457 21.7999V32.9999C465.9 35.1999 469.7 38.7999 469.7 44.9999C469.7 51.3999 464.7 55.6999 457.3 56.3999V59.8999C457.3 61.2999 456.2 62.3999 454.8 62.3999C453.4 62.3999 452.2 61.2999 452.2 59.8999V56.2999C447.8 55.7999 443.8 54.2999 440.2 51.6999C439.2 51.0999 438.6 50.0999 438.6 48.8999C438.6 47.0999 440 45.6999 441.8 45.6999C442.5 45.6999 443.2 45.8999 443.7 46.2999C446.4 48.2999 449.1 49.5999 452.3 50.1999V38.7999C443.8 36.5999 439.8 33.3999 439.8 26.7999C439.8 20.4999 444.8 16.1999 452.1 15.5999V14.3999C452.2 12.9999 453.3 11.8999 454.7 11.8999ZM452.4 31.7999V21.3999C448.7 21.7999 446.8 23.6999 446.8 26.2999C446.8 28.7999 447.9 30.2999 452.4 31.7999ZM457 39.8999V50.4999C460.7 50.0999 462.8 48.1999 462.8 45.3999C462.8 42.8999 461.5 41.2999 457 39.8999Z" fill="white"/>
<path d="M160 251.5C160.5 239 160.3 226.5 159.5 214C157.8 188.3 153.6 162.7 147.8 137.6C144.5 123.5 140.5 109.6 136.3 95.6999C136.2 95.2999 135.5 95.4 135.6 95.8C148.6 144.7 159.2 195.2 158.5 246C158.3 260.2 156.6 274.2 155.3 288.3C155.3 288.7 155.9 288.8 156 288.4C158.7 276.6 159.5 263.9 160 251.5Z" fill="#FFD8D0"/>
<path d="M135.6 95.8999C135.6 95.8999 115.9 145.9 120.3 157.6C124.7 169.3 133.8 171.8 133.8 171.8C133.8 171.8 121.8 189 130.2 205.1C138.6 221.2 157.3 220.5 158.6 238.7C158.5 238.8 159.6 162.4 135.6 95.8999Z" fill="#FFD8D0"/>
<path d="M156.4 207.3C156.4 207.2 156.4 207.1 156.4 207C153.6 173 147.6 139.2 137.3 106.5C137.3 106.4 137.1 106.4 137.1 106.5C141 121.1 144.5 135.8 147.4 150.6C144.8 148 141.5 146.5 138 145.4C137.9 145.4 137.9 145.5 138 145.5C141.6 147.1 145.1 148.9 147.7 152C148.3 154.9 148.8 157.8 149.4 160.7C145 155.8 138.9 153.3 132.8 151C132.7 151 132.7 151.1 132.8 151.1C139.2 153.7 145.5 157 149.8 162.5C151.3 170.8 152.6 179.1 153.8 187.5C150.6 184.1 146.6 181.9 142.1 180.8C142 180.8 141.9 181 142 181C146.7 182.3 150.7 185 153.9 188.6C153.9 188.6 153.9 188.6 154 188.7C154.4 191.6 154.8 194.6 155.1 197.5C152.6 195.4 149.9 193.8 146.9 192.5C146.8 192.5 146.8 192.6 146.9 192.6C150 193.9 152.7 195.8 155.1 198.1H155.2C155.5 200.9 155.9 203.7 156.1 206.5C151.6 201.1 146 197.1 139.4 194.6C139.3 194.6 139.2 194.7 139.3 194.8C145.7 197.6 151.4 202 155.7 207.5C155.8 207.6 156 207.7 156.1 207.6C156.5 211.9 156.9 216.2 157.2 220.5C157.2 220.6 157.3 220.6 157.3 220.5C157.1 216.1 156.8 211.7 156.4 207.3Z" fill="#263238"/>
<path d="M140.6 140.4C137.2 138.1 132.8 137.1 128.8 136.7C128.7 136.7 128.7 136.8 128.8 136.9C133 137.5 136.6 139.1 140.5 140.7C140.6 140.8 140.7 140.5 140.6 140.4Z" fill="#263238"/>
<path d="M143 193.3C140.3 191.7 137.2 190.8 134.1 190.3C134 190.3 134 190.4 134.1 190.5C137.2 191.1 140 192.2 142.9 193.6C143 193.6 143.1 193.4 143 193.3Z" fill="#263238"/>
<path d="M211.8 158.4C203.6 164.2 195.7 170.8 189 178.3C181.9 186.3 176.7 195.3 173 205.4C165.6 226 161.5 248.3 161.1 270.2C160.9 282.5 162 294.6 164.6 306.6C164.7 307 165.3 306.9 165.3 306.5C162.1 285.4 162.2 263.9 165.7 242.8C169.1 222.1 174.4 199.7 187.5 182.9C194.7 173.8 203.6 166.6 212.4 159.1C212.9 158.7 212.3 158.1 211.8 158.4Z" fill="#FFD8D0"/>
<path d="M164 255.3C164 255.3 170.8 243.9 180.6 234.1C190.4 224.3 198.7 217.3 200 210.8C201.3 204.3 190.1 199.5 190.1 199.5C190.1 199.5 203.7 201.9 207.5 196.2C211.2 190.5 213 157.4 213 157.4C213 157.4 188.2 175.1 176.7 199.9C165.2 224.7 164 255.3 164 255.3Z" fill="#FFD8D0"/>
<path d="M204.5 165.9C194.1 176.1 183.6 187.1 177.4 200.5C175.3 205.1 173.5 209.9 171.9 214.8C171.6 215.8 171.3 216.8 171 217.7C171 217.7 171 217.8 170.9 217.9C167.9 227.9 165.7 238.3 163.9 248.5C163.9 248.6 164 248.6 164 248.5C165.1 243.3 166.2 238.1 167.6 232.9H167.7C169.8 232 171.9 231.5 174.2 231.2C174.3 231.2 174.3 230.9 174.2 230.9C172 231 169.9 231.4 167.8 232.1C169 227.4 170.3 222.7 171.8 218.1C176.6 216.9 181.6 216.3 186.5 216.2C186.6 216.2 186.6 216.1 186.5 216.1C181.5 215.9 176.9 216.3 172 217.3C172.3 216.5 172.5 215.7 172.8 214.9C176 214.2 179.3 213.5 182.6 213.2C182.7 213.2 182.7 213.1 182.6 213.1C179.4 213.2 176.2 213.5 173 214.3C174.3 210.3 175.8 206.4 177.4 202.5C178.7 199.3 180.3 196.3 182.1 193.4C184.7 192.8 187.3 192.2 190 192C190.1 192 190.1 191.9 190 191.9C187.5 191.7 185 191.9 182.6 192.6C183.9 190.5 185.3 188.4 186.7 186.4C192.3 185.2 197.9 184 203.6 185.1C203.7 185.1 203.7 185 203.6 184.9C198.2 183.5 192.8 184.3 187.4 185.4C188 184.6 188.6 183.8 189.2 183.1C192.6 182 196 181.5 199.6 181.5C199.7 181.5 199.7 181.4 199.6 181.4C196.3 181.1 193.1 181.4 189.9 182.3C194.5 176.6 199.6 171.2 204.6 165.9C204.9 165.8 204.7 165.6 204.5 165.9Z" fill="#263238"/>
<path d="M204.2 188.4C202.6 188.2 200.9 188 199.3 188.2C199.1 188.2 199.1 188.5 199.3 188.6C200.9 188.6 202.6 188.5 204.2 188.6C204.3 188.6 204.3 188.4 204.2 188.4Z" fill="#263238"/>
<path d="M186.4 220.6C183.8 220.6 181.2 221.3 178.8 222.1C178.7 222.1 178.8 222.2 178.8 222.2C181.3 221.6 183.9 221.4 186.4 220.9C186.6 220.9 186.6 220.6 186.4 220.6Z" fill="#263238"/>
<path d="M181 209.5C179.9 209.4 178.8 209.6 177.8 209.8C177.7 209.8 177.7 210 177.8 210C178.9 210 180 210 181.1 209.8C181.2 209.8 181.2 209.5 181 209.5Z" fill="#263238"/>
<path d="M91.4 193.6C99.4 196.4 107.3 199.9 114.4 204.4C122 209.2 128.3 215.3 133.6 222.6C144.4 237.5 152.8 254.7 158.2 272.3C161.2 282.2 163.1 292.3 163.8 302.6C163.8 303 163.3 303 163.2 302.7C160.9 284.9 155.8 267.5 148.2 251.2C140.7 235.3 131.2 218.3 116.7 207.7C108.8 202 99.9 198.2 91.1 194.2C90.6 194.1 90.9 193.4 91.4 193.6Z" fill="#FFD8D0"/>
<path d="M152.4 261C152.4 261 144.3 253.4 134.1 247.7C123.9 242 115.5 238.3 113 233.3C110.5 228.3 118.4 221.9 118.4 221.9C118.4 221.9 107.9 227 103.6 223.3C99.3 219.5 90.2 193.2 90.2 193.2C90.2 193.2 114.3 201.8 129.4 219.2C144.4 236.4 152.4 261 152.4 261Z" fill="#FFD8D0"/>
<path d="M151.2 255.5C139.1 232.8 123 212.3 100.9 198.8C106.7 202.5 112.1 206.8 117.1 211.4C112.6 211.3 108.1 212 104.1 214.1C104 214.1 104.1 214.3 104.2 214.2C108.6 212.7 112.9 211.7 117.6 211.9C117.7 211.9 117.7 211.9 117.8 211.8C118.6 212.5 119.4 213.3 120.1 214.1C117.8 214.2 115.4 214.5 113.2 215C113.1 215 113.2 215.1 113.2 215.1C115.7 214.6 118 214.5 120.5 214.5C124.5 218.6 128.3 222.9 131.9 227.4C130.3 227.2 128.6 227.3 127 227.8C126.9 227.8 126.9 228 127 228C128.8 227.8 130.4 227.8 132.2 227.9C132.9 228.7 133.5 229.6 134.2 230.4C129.2 230.1 124.4 230.6 119.5 231.8C119.4 231.8 119.4 231.9 119.5 231.9C124.5 230.9 129.5 230.6 134.6 230.9C135.2 231.7 135.8 232.6 136.4 233.4C133.4 233.3 130.6 233.7 127.7 234.4C127.6 234.4 127.6 234.6 127.7 234.6C130.7 233.9 133.7 233.8 136.7 233.9C139.3 237.5 141.8 241.1 144.2 244.8C142.9 244.5 141.6 244.7 140.4 245C140.3 245 140.4 245.1 140.4 245.1C141.8 244.9 143.1 245.1 144.5 245.3C146.7 248.6 148.7 252 150.7 255.4C150.9 256 151.3 255.8 151.2 255.5Z" fill="#263238"/>
<path d="M132.4 236.7C130 236.5 127.6 236.9 125.4 237.6C125.3 237.6 125.4 237.7 125.4 237.7C127.7 237.3 130 237.1 132.4 237C132.5 237 132.5 236.7 132.4 236.7Z" fill="#263238"/>
<path d="M111.3 209.1C110.2 209 109.1 209.1 108.1 209.3C108 209.3 108 209.5 108.1 209.5C109.2 209.4 110.2 209.4 111.3 209.4C111.5 209.4 111.5 209.1 111.3 209.1Z" fill="#263238"/>
<path d="M183.6 336.3H129.1L136.8 279.4L138.8 264.8H173.8L175.8 279.4L183.6 336.3Z" fill="#455A64"/>
<path d="M175.8 279.4H136.8L138.8 264.8H173.8L175.8 279.4Z" fill="#263238"/>
<path d="M178.8 259.7H133.8V272.1H178.8V259.7Z" fill="#455A64"/>
<path d="M181 50.8H154.5V62H181V50.8Z" fill="#EBEBEB"/>
<path d="M166.2 64.9001H139.7V76.1001H166.2V64.9001Z" fill="#EBEBEB"/>
<path d="M301.7 412.6C411.052 412.6 499.7 399.84 499.7 384.1C499.7 368.36 411.052 355.6 301.7 355.6C192.348 355.6 103.7 368.36 103.7 384.1C103.7 399.84 192.348 412.6 301.7 412.6Z" fill="#4A56E2"/>
<path d="M392.2 22.7V344.7C392.2 354.2 384.6 361.9 375.3 361.9H208.8C199.5 361.9 191.9 354.2 191.9 344.7V22.7C191.9 13.2 199.5 5.5 208.8 5.5H375.4C384.6 5.6 392.2 13.3 392.2 22.7Z" fill="#263238"/>
<path d="M381.7 38.8999V334.2C381.7 343.2 374.9 350.5 366.6 350.5H217.6C209.2 350.5 202.5 343.2 202.5 334.2V38.8999C202.5 20.4999 209.3 16.3999 217.6 16.3999H247.4C249.1 16.3999 250.5 18.3999 250.5 20.7999V21.8999C250.5 27.5999 253.6 27.6999 257.5 27.6999H326.5C330.4 27.6999 333.5 27.6999 333.5 21.8999V20.7999C333.5 18.3999 334.9 16.3999 336.6 16.3999H366.5C374.9 16.4999 381.7 22.0999 381.7 38.8999Z" fill="white"/>
<path d="M301.5 20.5001H282.7C282.1 20.5001 281.5 20.0001 281.5 19.3001C281.5 18.7001 282 18.1001 282.7 18.1001H301.5C302.1 18.1001 302.7 18.6001 302.7 19.3001C302.6 20.0001 302.1 20.5001 301.5 20.5001Z" fill="white"/>
<path d="M363.3 147.8L363.5 227.7C363.5 232.2 359.9 235.8 355.4 235.8L228.7 236.1C224.2 236.1 220.6 232.5 220.6 228L220.4 148.1C220.4 143.9 223.7 140.6 227.9 140.6L355.7 140.3C359.9 140.3 363.3 143.7 363.3 147.8Z" fill="#4A56E2"/>
<path d="M342.827 217.563C343.403 213.517 340.59 209.77 336.544 209.194C332.498 208.618 328.751 211.431 328.175 215.477C327.599 219.524 330.412 223.27 334.458 223.846C338.504 224.422 342.251 221.609 342.827 217.563Z" fill="#37474F"/>
<path d="M352.1 216.5C352.1 220.6 348.8 223.9 344.7 224C340.6 224 337.3 220.7 337.2 216.6C337.2 212.5 340.5 209.2 344.6 209.1C348.7 209.1 352.1 212.4 352.1 216.5Z" fill="#FFC727"/>
<path d="M255.1 172.9H236.7C234.4 172.9 232.5 171 232.5 168.7V158.6C232.5 156.3 234.4 154.4 236.7 154.4H255.1C257.4 154.4 259.3 156.3 259.3 158.6V168.7C259.3 171 257.4 172.8 255.1 172.9Z" fill="#FFC727"/>
<path d="M346.8 164.2H334.7C331.9 164.2 329.6 161.9 329.6 159.1C329.6 156.3 331.9 154 334.7 154H346.8C349.6 154 351.9 156.3 351.9 159.1C351.9 162 349.7 164.2 346.8 164.2Z" fill="white"/>
<path d="M231.6 189.8L230.5 190.4H230.4C230.3 190.4 230.2 190.3 230.2 190.3C230.1 190.2 230.2 190 230.3 189.9L231.8 189C231.9 188.9 232.1 189 232.2 189.1C232.2 189.2 232.2 189.2 232.2 189.3V196.4C232.2 196.5 232.1 196.7 231.9 196.7C231.8 196.7 231.6 196.6 231.6 196.4V189.8Z" fill="#F8F8F8"/>
<path d="M234 196.3L237.6 193C238 192.6 238.3 192.1 238.3 191.5C238.3 191 238.1 190.5 237.8 190.2C237.4 189.8 236.9 189.5 236.3 189.5C235.8 189.5 235.3 189.7 234.9 190L234.5 190.3C234.4 190.4 234.2 190.4 234.1 190.3C234 190.2 234 190 234.1 189.9L234.5 189.5C235 189.1 235.6 188.8 236.2 188.8C236.9 188.8 237.6 189.1 238.1 189.6C238.6 190.1 238.8 190.7 238.8 191.3C238.8 192 238.5 192.7 238 193.2L234.9 196H238.6C238.7 196 238.9 196.1 238.9 196.3C238.9 196.4 238.8 196.6 238.6 196.6H234.3C234.2 196.6 234.1 196.6 234.1 196.5C233.9 196.6 233.9 196.4 234 196.3Z" fill="#F8F8F8"/>
<path d="M245.3 189.5L243.3 191.6C243.8 191.7 244.3 191.9 244.6 192.3C245.1 192.8 245.4 193.5 245.4 194.2C245.4 194.9 245.1 195.6 244.6 196.1C244.1 196.6 243.4 196.9 242.7 196.9C242 196.9 241.4 196.6 240.8 196.1C240.7 196 240.7 195.8 240.8 195.7C240.9 195.6 241.1 195.6 241.2 195.7C241.6 196.1 242.1 196.3 242.7 196.3C243.2 196.3 243.8 196.1 244.2 195.7C244.6 195.3 244.8 194.8 244.8 194.2C244.8 193.7 244.6 193.1 244.2 192.7C243.8 192.3 243.3 192.1 242.7 192.1C242.6 192.1 242.5 192.1 242.5 192C242.4 191.9 242.4 191.7 242.5 191.6L244.4 189.6H241.4C241.2 189.6 241.1 189.5 241.1 189.3C241.1 189.1 241.2 189 241.4 189H245C245.2 189 245.3 189.1 245.3 189.3C245.4 189.3 245.3 189.4 245.3 189.5C245.3 189.4 245.3 189.5 245.3 189.5Z" fill="#F8F8F8"/>
<path d="M251.8 195.2H247.6C247.5 195.2 247.5 195.2 247.4 195.1C247.3 195 247.3 194.8 247.4 194.7L251.9 189.1C252 189 252.2 189 252.3 189.1L252.4 189.2V194.5H252.9C253.1 194.5 253.2 194.6 253.2 194.8C253.2 194.9 253.1 195.1 252.9 195.1H252.4V196.4C252.4 196.5 252.3 196.7 252.1 196.7C252 196.7 251.8 196.6 251.8 196.4V195.2ZM251.8 194.6V190L248.1 194.6H251.8Z" fill="#F8F8F8"/>
<path d="M261.6 196C261.5 195.9 261.5 195.7 261.6 195.6C261.7 195.5 261.9 195.5 262 195.6C262.4 196 262.9 196.2 263.5 196.2C264 196.2 264.6 196 265 195.6C265.4 195.2 265.6 194.7 265.6 194.1C265.6 193.6 265.4 193 265 192.6C264.6 192.2 264.1 192 263.5 192C263 192 262.4 192.2 262 192.6C261.9 192.7 261.7 192.7 261.6 192.6L261.5 192.5V192.4C261.5 192.4 261.5 192.4 261.5 192.3L261.9 189.2C261.9 189.1 261.9 189 262 189C262 189 262.1 188.9 262.2 188.9H265.8C266 188.9 266.1 189 266.1 189.2C266.1 189.4 266 189.5 265.8 189.5H262.4L262.1 191.8C262.5 191.6 263 191.4 263.4 191.4C264.1 191.4 264.7 191.6 265.3 192.2C265.8 192.7 266.1 193.4 266.1 194.1C266.1 194.8 265.9 195.5 265.3 196C264.8 196.5 264.1 196.8 263.4 196.8C262.8 196.7 262.1 196.5 261.6 196Z" fill="#F8F8F8"/>
<path d="M269 190.6C269.5 189.7 270.4 189 271.7 188.9C271.8 188.9 272 189 272 189.2C272 189.4 271.9 189.5 271.7 189.5C270.6 189.5 269.9 190.1 269.4 190.9C269.1 191.4 269 191.9 268.8 192.5C269.3 192 270 191.6 270.7 191.6C272.1 191.6 273.3 192.7 273.3 194.2C273.3 195.6 272.2 196.8 270.7 196.8C269.3 196.8 268.2 195.7 268.1 194.3C268.1 194.1 268.1 194 268.1 193.8C268.2 192.7 268.4 191.6 269 190.6ZM268.8 194.2C268.8 194.3 268.8 194.3 268.8 194.3V194.4C268.9 195.4 269.8 196.2 270.8 196.2C271.9 196.2 272.8 195.3 272.8 194.2C272.8 193.1 271.9 192.2 270.7 192.2C269.7 192.1 268.8 193 268.8 194.2Z" fill="#F8F8F8"/>
<path d="M276.2 196.3L279.1 189.5H275.3C275.2 189.5 275 189.4 275 189.2C275 189.1 275.1 188.9 275.3 188.9H279.4C279.5 188.9 279.5 188.9 279.6 188.9C279.7 188.9 279.7 189 279.7 189.1V189.2C279.7 189.3 279.7 189.3 279.7 189.3L276.7 196.5C276.7 196.6 276.6 196.7 276.5 196.7H276.4C276.2 196.6 276.2 196.4 276.2 196.3Z" fill="#F8F8F8"/>
<path d="M283.9 188.9C284.8 188.9 285.5 189.6 285.5 190.5C285.5 191 285.2 191.5 284.8 191.8C285.7 192.2 286.4 193.1 286.4 194.1C286.4 195.5 285.3 196.6 283.9 196.6C282.5 196.6 281.4 195.5 281.4 194.1C281.4 193.1 282 192.1 283 191.8C282.6 191.5 282.4 191 282.4 190.5C282.3 189.6 283 188.9 283.9 188.9ZM283.9 196.1C285 196.1 285.9 195.2 285.9 194.1C285.9 193 285 192.1 283.9 192.1C282.8 192.1 281.9 193 281.9 194.1C281.9 195.3 282.8 196.1 283.9 196.1ZM283.9 191.6C284.5 191.6 285 191.1 285 190.5C285 189.9 284.5 189.4 283.9 189.4C283.3 189.4 282.8 189.9 282.8 190.5C282.8 191.1 283.3 191.6 283.9 191.6Z" fill="#F8F8F8"/>
<path d="M297.7 188.9C299 188.9 300.1 189.9 300.3 191.2C300.3 191.2 300.3 191.2 300.3 191.3C300.3 191.5 300.3 191.7 300.3 192C300.3 193 300.1 194.2 299.6 195.1C299.1 196 298.2 196.7 296.9 196.8C296.7 196.8 296.6 196.7 296.6 196.5C296.6 196.3 296.7 196.2 296.9 196.2C298 196.2 298.7 195.6 299.2 194.8C299.5 194.3 299.7 193.8 299.8 193.2C299.3 193.7 298.6 194.1 297.9 194.1C296.5 194.1 295.3 193 295.3 191.5C295.2 190 296.3 188.9 297.7 188.9ZM299.8 191.4C299.8 190.3 298.9 189.4 297.8 189.4C296.7 189.4 295.8 190.3 295.8 191.4C295.8 192.5 296.7 193.4 297.8 193.4C298.9 193.4 299.8 192.5 299.8 191.4Z" fill="#F8F8F8"/>
<path d="M302.3 192.7C302.3 191.7 302.6 190.7 303 190C303.5 189.3 304.2 188.8 304.9 188.8C305.7 188.8 306.4 189.3 306.8 190C307.3 190.7 307.6 191.7 307.6 192.7C307.6 193.7 307.3 194.7 306.9 195.4C306.4 196.1 305.7 196.6 305 196.6C304.2 196.6 303.5 196.1 303.1 195.4C302.6 194.7 302.3 193.8 302.3 192.7ZM302.8 192.7C302.8 193.7 303.1 194.5 303.5 195.1C303.9 195.7 304.4 196 305 196C305.6 196 306.1 195.7 306.5 195.1C306.9 194.5 307.2 193.6 307.2 192.7C307.2 191.7 306.9 190.9 306.5 190.3C306.1 189.7 305.6 189.4 305 189.4C304.4 189.4 303.9 189.7 303.5 190.3C303.1 190.9 302.8 191.8 302.8 192.7Z" fill="#F8F8F8"/>
<path d="M311.3 189.6L310.2 190.2H310.1C310 190.2 309.9 190.1 309.9 190.1C309.8 190 309.9 189.8 310 189.7L311.5 188.8C311.6 188.7 311.8 188.8 311.9 188.9C311.9 189 311.9 189 311.9 189.1V196.2C311.9 196.3 311.8 196.5 311.6 196.5C311.5 196.5 311.3 196.4 311.3 196.2V189.6Z" fill="#F8F8F8"/>
<path d="M313.7 196.1L317.3 192.8C317.7 192.4 318 191.9 318 191.3C318 190.8 317.8 190.3 317.5 190C317.1 189.6 316.6 189.3 316 189.3C315.5 189.3 315 189.5 314.6 189.8L314.2 190.1C314.1 190.2 313.9 190.2 313.8 190.1C313.7 190 313.7 189.8 313.8 189.7L314.2 189.3C314.7 188.9 315.3 188.6 315.9 188.6C316.6 188.6 317.3 188.9 317.8 189.4C318.3 189.9 318.5 190.5 318.5 191.1C318.5 191.8 318.2 192.5 317.7 193L314.6 195.8H318.3C318.4 195.8 318.6 195.9 318.6 196.1C318.6 196.2 318.5 196.4 318.3 196.4H314C313.9 196.4 313.8 196.4 313.8 196.3C313.6 196.4 313.6 196.2 313.7 196.1Z" fill="#F8F8F8"/>
<path d="M331.6 189.3L329.6 191.4C330.1 191.5 330.6 191.7 330.9 192.1C331.4 192.6 331.7 193.3 331.7 194C331.7 194.7 331.4 195.4 330.9 195.9C330.4 196.4 329.7 196.7 329 196.7C328.3 196.7 327.7 196.4 327.1 195.9C327 195.8 327 195.6 327.1 195.5C327.2 195.4 327.4 195.4 327.5 195.5C327.9 195.9 328.4 196.1 329 196.1C329.5 196.1 330.1 195.9 330.5 195.5C330.9 195.1 331.1 194.6 331.1 194C331.1 193.5 330.9 192.9 330.5 192.5C330.1 192.1 329.6 191.9 329 191.9C328.9 191.9 328.8 191.9 328.8 191.8C328.7 191.7 328.7 191.5 328.8 191.4L330.7 189.4H327.7C327.5 189.4 327.4 189.3 327.4 189.1C327.4 188.9 327.5 188.8 327.7 188.8H331.3C331.5 188.8 331.6 188.9 331.6 189.1C331.7 189.1 331.7 189.1 331.6 189.3C331.7 189.2 331.7 189.2 331.6 189.3Z" fill="#F8F8F8"/>
<path d="M338.2 194.9H334C333.9 194.9 333.9 194.9 333.8 194.8C333.7 194.7 333.7 194.5 333.8 194.4L338.3 188.8C338.4 188.7 338.6 188.7 338.7 188.8L338.8 188.9V194.2H339.3C339.5 194.2 339.6 194.3 339.6 194.5C339.6 194.6 339.5 194.8 339.3 194.8H338.8V196.1C338.8 196.2 338.7 196.4 338.5 196.4C338.4 196.4 338.2 196.3 338.2 196.1V194.9ZM338.2 194.4V189.8L334.5 194.4H338.2Z" fill="#F8F8F8"/>
<path d="M341.3 195.8C341.2 195.7 341.2 195.5 341.3 195.4C341.4 195.3 341.6 195.3 341.7 195.4C342.1 195.8 342.6 196 343.2 196C343.7 196 344.3 195.8 344.7 195.4C345.1 195 345.3 194.5 345.3 193.9C345.3 193.4 345.1 192.8 344.7 192.4C344.3 192 343.8 191.8 343.2 191.8C342.7 191.8 342.1 192 341.7 192.4C341.6 192.5 341.4 192.5 341.3 192.4L341.2 192.3V192.2C341.2 192.2 341.2 192.2 341.2 192.1L341.6 189C341.6 188.9 341.6 188.8 341.7 188.8C341.7 188.8 341.8 188.7 341.9 188.7H345.5C345.7 188.7 345.8 188.8 345.8 189C345.8 189.2 345.7 189.3 345.5 189.3H342.1L341.8 191.6C342.2 191.4 342.7 191.2 343.1 191.2C343.8 191.2 344.4 191.4 345 192C345.5 192.5 345.8 193.2 345.8 193.9C345.8 194.6 345.6 195.3 345 195.8C344.5 196.3 343.8 196.6 343.1 196.6C342.5 196.5 341.8 196.3 341.3 195.8Z" fill="#F8F8F8"/>
<path d="M348.7 190.4C349.2 189.5 350.1 188.8 351.4 188.7C351.5 188.7 351.7 188.8 351.7 189C351.7 189.2 351.6 189.3 351.4 189.3C350.3 189.3 349.6 189.9 349.1 190.7C348.8 191.2 348.7 191.7 348.5 192.3C349 191.8 349.7 191.4 350.4 191.4C351.8 191.4 353 192.5 353 194C353 195.4 351.9 196.6 350.4 196.6C349 196.6 347.9 195.5 347.8 194.1C347.8 193.9 347.8 193.8 347.8 193.6C347.9 192.5 348.1 191.3 348.7 190.4ZM348.5 194C348.5 194.1 348.5 194.1 348.5 194.1V194.2C348.6 195.2 349.5 196 350.5 196C351.6 196 352.5 195.1 352.5 194C352.5 192.9 351.6 192 350.4 192C349.4 191.9 348.5 192.8 348.5 194Z" fill="#F8F8F8"/>
<path d="M300.496 210.012L232.596 210.189L232.605 213.489L300.505 213.312L300.496 210.012Z" fill="#263238"/>
<path d="M280.596 217.439L232.596 217.563L232.605 220.863L280.605 220.739L280.596 217.439Z" fill="#263238"/>
<path d="M324.897 154.157L291.097 154.244L291.105 157.544L324.905 157.457L324.897 154.157Z" fill="#263238"/>
<path d="M221.5 124.4C221.5 124.3 221.6 124.1 221.8 124.1H223.8C224.9 124.1 225.9 125 225.9 126.2C225.9 127.3 225 128.3 223.8 128.3H222V131.2C222 131.3 221.9 131.5 221.7 131.5C221.6 131.5 221.4 131.4 221.4 131.2V124.4H221.5ZM223.8 127.9C224.7 127.9 225.4 127.2 225.4 126.3C225.4 125.4 224.7 124.7 223.8 124.7H222V127.9H223.8Z" fill="#263238"/>
<path d="M231.8 126.6V131.2C231.8 131.3 231.7 131.5 231.5 131.5C231.4 131.5 231.2 131.4 231.2 131.2V130.4C230.8 131 230.1 131.4 229.3 131.4C228 131.4 226.9 130.2 226.9 128.8C226.9 127.4 228 126.2 229.3 126.2C230.1 126.2 230.8 126.6 231.2 127.2V126.4C231.2 126.3 231.3 126.1 231.5 126.1C231.7 126.4 231.8 126.5 231.8 126.6ZM231.3 128.9C231.3 127.8 230.4 126.8 229.4 126.8C228.4 126.8 227.5 127.7 227.5 128.9C227.5 130 228.4 131 229.4 131C230.4 131 231.3 130.1 231.3 128.9Z" fill="#263238"/>
<path d="M233.9 126.6C233.9 126.5 234 126.4 234.1 126.4C234.2 126.4 234.4 126.5 234.4 126.6V129.4C234.4 130.3 235.1 131 236 131C236.9 131 237.6 130.3 237.6 129.4V126.6V126.5L237.7 126.4C237.7 126.4 237.8 126.4 237.8 126.5L237.9 126.6V126.7V129.5V129.6V131.2C237.9 132.5 236.8 133.6 235.5 133.6C235.1 133.6 234.8 133.5 234.4 133.4C234.3 133.3 234.2 133.2 234.3 133.1C234.4 133 234.5 132.9 234.6 133C234.9 133.1 235.1 133.2 235.4 133.2C236.5 133.2 237.3 132.4 237.3 131.3V131C236.9 131.4 236.4 131.7 235.7 131.7C234.6 131.7 233.6 130.8 233.6 129.6V126.6H233.9Z" fill="#263238"/>
<path d="M247.7 128.5C247.7 127.6 247 126.9 246.1 126.9C245.2 126.9 244.5 127.6 244.5 128.5V131.3C244.5 131.4 244.4 131.4 244.4 131.4H244.3C244.3 131.4 244.3 131.4 244.2 131.4V128.6C244.2 127.7 243.5 127 242.6 127C241.7 127 241 127.7 241 128.6V131.4C241 131.5 241 131.6 240.9 131.6C240.9 131.6 240.9 131.6 240.8 131.6C240.7 131.6 240.6 131.5 240.6 131.4V131.3V128.5V128.4V126.6C240.6 126.5 240.7 126.4 240.8 126.4C240.9 126.4 241.1 126.5 241.1 126.6V127.1C241.5 126.7 242 126.4 242.7 126.4C243.5 126.4 244.2 126.8 244.5 127.5C244.9 126.9 245.6 126.4 246.3 126.4C247.4 126.4 248.4 127.3 248.4 128.5V131.3C248.4 131.4 248.3 131.5 248.1 131.5C248 131.5 247.9 131.4 247.9 131.3V128.5H247.7Z" fill="#263238"/>
<path d="M250 129C250 127.6 251.1 126.4 252.5 126.4C253.8 126.4 254.9 127.4 255 128.8C255 128.9 254.9 129 254.7 129H250.5C250.6 130.1 251.4 131 252.5 131C253.2 131 253.8 130.6 254.1 130.1C254.2 130 254.3 130 254.4 130C254.5 130.1 254.6 130.2 254.5 130.4C254.1 131.1 253.3 131.6 252.4 131.6C251.1 131.5 250 130.4 250 129ZM250.5 128.5H254.4C254.2 127.5 253.4 126.8 252.5 126.8C251.5 126.9 250.7 127.6 250.5 128.5Z" fill="#263238"/>
<path d="M260.4 128.5C260.4 127.6 259.7 126.9 258.8 126.9C257.9 126.9 257.2 127.6 257.2 128.5V131.3C257.2 131.3 257.2 131.4 257.1 131.4C257.1 131.5 257 131.5 256.9 131.5H256.8C256.7 131.5 256.7 131.4 256.6 131.4V131.3V128.5V128.4V126.7C256.6 126.6 256.7 126.4 256.9 126.4C257 126.4 257.1 126.5 257.1 126.7V127.2C257.5 126.8 258 126.5 258.7 126.5C259.8 126.5 260.8 127.4 260.8 128.6V131.4C260.8 131.5 260.7 131.7 260.5 131.7C260.4 131.7 260.2 131.6 260.2 131.4V128.5H260.4Z" fill="#263238"/>
<path d="M264.9 126.6C264.9 126.7 264.8 126.9 264.6 126.9H264V130.6C264 130.9 264.3 131 264.4 131C264.5 131 264.7 131.1 264.7 131.3C264.7 131.4 264.6 131.6 264.4 131.6C263.9 131.6 263.5 131.2 263.5 130.7V127H262.9C262.6 127 262.6 126.9 262.6 126.7C262.6 126.6 262.6 126.4 262.9 126.4H263.5V124.5C263.5 124.4 263.6 124.2 263.8 124.2C263.9 124.2 264.1 124.3 264.1 124.5V126.4H264.8C264.8 126.4 264.9 126.5 264.9 126.6Z" fill="#263238"/>
<path d="M277.7 128.5C277.7 127.6 277 126.9 276.1 126.9C275.2 126.9 274.5 127.6 274.5 128.5V131.3C274.5 131.4 274.4 131.4 274.4 131.4H274.3C274.3 131.4 274.3 131.4 274.2 131.4V128.6C274.2 127.7 273.5 127 272.6 127C271.7 127 271 127.7 271 128.6V131.4C271 131.5 271 131.6 270.9 131.6C270.9 131.6 270.9 131.6 270.8 131.6C270.7 131.6 270.6 131.5 270.6 131.4V131.3V128.5V128.4V126.6C270.6 126.5 270.7 126.4 270.8 126.4C270.9 126.4 271.1 126.5 271.1 126.6V127.1C271.5 126.7 272 126.4 272.7 126.4C273.5 126.4 274.2 126.8 274.5 127.5C274.9 126.9 275.6 126.4 276.3 126.4C277.4 126.4 278.4 127.3 278.4 128.5V131.3C278.4 131.4 278.3 131.5 278.1 131.5C278 131.5 277.9 131.4 277.9 131.3V128.5H277.7Z" fill="#263238"/>
<path d="M280 129C280 127.6 281.1 126.4 282.5 126.4C283.8 126.4 284.9 127.4 285 128.8C285 128.9 284.9 129 284.7 129H280.5C280.6 130.1 281.4 131 282.5 131C283.2 131 283.8 130.6 284.1 130.1C284.2 130 284.3 130 284.4 130C284.5 130.1 284.6 130.2 284.5 130.4C284.1 131.1 283.3 131.6 282.4 131.6C281.1 131.5 280 130.4 280 129ZM280.5 128.5H284.4C284.2 127.5 283.4 126.8 282.5 126.8C281.5 126.9 280.7 127.6 280.5 128.5Z" fill="#263238"/>
<path d="M288.1 126.6C288.1 126.7 288 126.9 287.8 126.9H287.1V130.6C287.1 130.9 287.4 131 287.5 131C287.6 131 287.8 131.1 287.8 131.3C287.8 131.4 287.7 131.6 287.5 131.6C287 131.6 286.6 131.2 286.6 130.7V127H286C285.7 127 285.7 126.9 285.7 126.7C285.7 126.6 285.7 126.4 286 126.4H286.6V124.5C286.6 124.4 286.7 124.2 286.9 124.2C287 124.2 287.2 124.3 287.2 124.5V126.4H287.9C288 126.4 288.1 126.5 288.1 126.6Z" fill="#263238"/>
<path d="M294 128.4C294 127.5 293.3 126.9 292.4 126.9C291.5 126.9 290.8 127.5 290.8 128.4V131.2C290.8 131.3 290.7 131.3 290.6 131.3C290.5 131.3 290.5 131.3 290.4 131.2V131.1V131V128.2V128.1V124.2C290.4 124.1 290.5 123.9 290.7 123.9C290.8 123.9 291 124 291 124.2V126.9C291.4 126.4 292 126.1 292.6 126.1C293.8 126.1 294.7 126.9 294.7 128.1V130.9C294.7 131 294.6 131.2 294.4 131.2C294.3 131.2 294.2 131.1 294.2 130.9V128.4H294Z" fill="#263238"/>
<path d="M298.9 126.4C300.2 126.4 301.3 127.6 301.3 129C301.3 130.4 300.2 131.6 298.9 131.6C297.6 131.6 296.5 130.4 296.5 129C296.4 127.6 297.5 126.4 298.9 126.4ZM298.9 131C299.9 131 300.8 130.1 300.8 128.9C300.8 127.8 299.9 126.8 298.9 126.8C297.9 126.8 297 127.7 297 128.9C296.9 130.1 297.8 131 298.9 131Z" fill="#263238"/>
<path d="M307.3 130.5C306.9 131.1 306.1 131.5 305.3 131.5C303.9 131.5 302.8 130.4 302.8 129C302.8 127.6 303.9 126.4 305.3 126.4C306.1 126.4 306.8 126.8 307.3 127.4V124.5C307.3 124.4 307.4 124.2 307.6 124.2C307.7 124.2 307.8 124.3 307.8 124.5V128.9V129V131.3C307.8 131.4 307.7 131.6 307.6 131.6C307.5 131.6 307.3 131.5 307.3 131.3V130.5ZM307.3 129V128.8C307.3 127.7 306.4 126.8 305.3 126.8C304.2 126.8 303.3 127.7 303.3 128.9C303.3 130 304.2 130.9 305.3 130.9C306.4 131 307.3 130.1 307.3 129Z" fill="#263238"/>
<path d="M223.4 75.4999H221.2C221.1 75.4999 220.9 75.3999 220.9 75.1999C220.9 75.0999 221 74.8999 221.2 74.8999H226.1C226.2 74.8999 226.4 74.9999 226.4 75.1999C226.4 75.2999 226.3 75.4999 226.1 75.4999H223.9V81.9999C223.9 82.0999 223.8 82.2999 223.6 82.2999C223.5 82.2999 223.3 82.1999 223.3 81.9999V75.4999H223.4Z" fill="#263238"/>
<path d="M228.9 77.2C230.2 77.2 231.3 78.4 231.3 79.8C231.3 81.2 230.2 82.4 228.9 82.4C227.6 82.4 226.5 81.2 226.5 79.8C226.5 78.4 227.6 77.2 228.9 77.2ZM228.9 81.8C229.9 81.8 230.8 80.9 230.8 79.7C230.8 78.6 229.9 77.6 228.9 77.6C227.9 77.6 227 78.5 227 79.7C227 80.9 227.9 81.8 228.9 81.8Z" fill="#263238"/>
<path d="M234.9 77.4999C234.9 77.5999 234.8 77.7999 234.6 77.7999H234V81.4999C234 81.7999 234.3 81.8999 234.4 81.8999C234.5 81.8999 234.7 81.9999 234.7 82.1999C234.7 82.2999 234.6 82.4999 234.4 82.4999C233.9 82.4999 233.5 82.0999 233.5 81.5999V77.8999H232.9C232.6 77.8999 232.6 77.7999 232.6 77.5999C232.6 77.4999 232.6 77.2999 232.9 77.2999H233.5V75.3999C233.5 75.2999 233.6 75.0999 233.8 75.0999C233.9 75.0999 234.1 75.1999 234.1 75.3999V77.2999H234.8C234.7 77.1999 234.9 77.3999 234.9 77.4999Z" fill="#263238"/>
<path d="M241.2 77.5V82.1C241.2 82.2 241.1 82.4 240.9 82.4C240.8 82.4 240.6 82.3 240.6 82.1V81.3C240.2 81.9 239.5 82.3 238.7 82.3C237.4 82.3 236.3 81.1 236.3 79.7C236.3 78.3 237.4 77.1 238.7 77.1C239.5 77.1 240.2 77.5 240.6 78.1V77.3C240.6 77.2 240.7 77 240.9 77C241.1 77.2 241.2 77.3 241.2 77.5ZM240.7 79.8C240.7 78.7 239.8 77.7 238.8 77.7C237.8 77.7 236.9 78.6 236.9 79.8C236.9 80.9 237.8 81.9 238.8 81.9C239.9 81.8 240.7 80.9 240.7 79.8Z" fill="#263238"/>
<path d="M243.6 75.3C243.6 75.2 243.7 75 243.9 75C244 75 244.2 75.1 244.2 75.3V82.1C244.2 82.2 244.1 82.4 243.9 82.4C243.8 82.4 243.6 82.3 243.6 82.1V75.3Z" fill="#263238"/>
<path d="M249.3 79.9V79.8V79.7V77.5C249.3 77.4 249.4 77.2 249.6 77.2C249.7 77.2 249.9 77.3 249.9 77.5V78.2C250.3 77.6 251 77.2 251.8 77.2C253.2 77.2 254.3 78.3 254.3 79.7C254.3 81.1 253.2 82.2 251.8 82.2C251 82.2 250.3 81.8 249.9 81.2V84.1C249.9 84.2 249.8 84.4 249.6 84.4C249.5 84.4 249.3 84.3 249.3 84.1V79.9ZM249.8 79.8C249.8 80.9 250.7 81.8 251.7 81.8C252.8 81.8 253.7 80.9 253.7 79.8C253.7 78.7 252.8 77.8 251.7 77.8C250.7 77.7 249.9 78.6 249.8 79.8Z" fill="#263238"/>
<path d="M256.2 77.5C256.2 77.4 256.3 77.2 256.5 77.2C256.6 77.2 256.7 77.3 256.7 77.5V78.6C256.7 78.6 256.7 78.5 256.8 78.5C257.2 77.9 257.9 77.2 258.8 77.2C258.9 77.2 259.1 77.3 259.1 77.5C259.1 77.6 259 77.8 258.8 77.8C258.1 77.8 257.7 78.2 257.3 78.6C257 79.1 256.8 79.6 256.7 79.8V79.9V82.1C256.7 82.2 256.6 82.4 256.5 82.4C256.4 82.4 256.2 82.3 256.2 82.1V77.5Z" fill="#263238"/>
<path d="M260.8 75.8C260.8 75.7 260.9 75.5 261.1 75.5C261.2 75.5 261.4 75.6 261.4 75.8V76C261.4 76.1 261.3 76.3 261.1 76.3C261 76.3 260.8 76.2 260.8 76V75.8ZM260.8 77.5C260.8 77.4 260.9 77.2 261.1 77.2C261.2 77.2 261.4 77.3 261.4 77.5V82.1C261.4 82.2 261.3 82.4 261.1 82.4C261 82.4 260.8 82.3 260.8 82.1V77.5Z" fill="#263238"/>
<path d="M263.3 79.7998C263.3 78.3998 264.5 77.2998 265.9 77.2998C266.5 77.2998 267.1 77.4998 267.5 77.8998C267.6 77.9998 267.6 78.0998 267.5 78.1998C267.4 78.2998 267.3 78.2998 267.2 78.1998C266.8 77.8998 266.4 77.6998 265.9 77.6998C264.7 77.6998 263.8 78.5998 263.8 79.7998C263.8 80.8998 264.7 81.8998 265.9 81.8998C266.4 81.8998 266.9 81.6998 267.2 81.4998C267.3 81.3998 267.5 81.3998 267.5 81.4998C267.6 81.5998 267.6 81.7998 267.4 81.8998C267 82.1998 266.4 82.3998 265.8 82.3998C264.5 82.2998 263.3 81.1998 263.3 79.7998Z" fill="#263238"/>
<path d="M269.2 79.8C269.2 78.4 270.3 77.2 271.7 77.2C273 77.2 274.1 78.2 274.2 79.6C274.2 79.7 274.1 79.8 273.9 79.8H269.7C269.8 80.9 270.6 81.8 271.7 81.8C272.4 81.8 273 81.4 273.3 80.9C273.4 80.8 273.5 80.8 273.6 80.8C273.7 80.9 273.8 81 273.7 81.2C273.3 81.9 272.5 82.4 271.6 82.4C270.3 82.3 269.2 81.2 269.2 79.8ZM269.7 79.4H273.6C273.4 78.4 272.6 77.7 271.7 77.7C270.7 77.7 269.9 78.4 269.7 79.4Z" fill="#263238"/>
<path d="M227.5 89.1001C228 89.1001 228.4 89.5001 228.4 90.0001V90.5001C229.6 90.6001 230.7 91.0001 231.6 91.6001C231.9 91.8001 232.2 92.1001 232.2 92.6001C232.2 93.2001 231.7 93.7001 231 93.7001C230.8 93.7001 230.6 93.6001 230.4 93.5001C229.7 93.1001 229 92.7001 228.2 92.6001V96.6001C231.4 97.4001 232.7 98.7001 232.7 100.9C232.7 103.2 230.9 104.7 228.2 105V106.3C228.2 106.8 227.8 107.2 227.3 107.2C226.8 107.2 226.4 106.8 226.4 106.3V105C224.8 104.8 223.4 104.3 222.1 103.4C221.7 103.2 221.5 102.8 221.5 102.4C221.5 101.8 222 101.3 222.6 101.3C222.9 101.3 223.1 101.4 223.3 101.5C224.3 102.2 225.2 102.7 226.4 102.9V98.8001C223.3 98.0001 221.9 96.9001 221.9 94.5001C221.9 92.3001 223.7 90.7001 226.3 90.5001V90.0001C226.6 89.5001 227 89.1001 227.5 89.1001ZM226.6 96.2001V92.5001C225.3 92.6001 224.6 93.3001 224.6 94.3001C224.6 95.2001 225 95.7001 226.6 96.2001ZM228.3 99.1001V102.9C229.6 102.8 230.4 102.1 230.4 101.1C230.4 100.2 229.9 99.6001 228.3 99.1001Z" fill="#24CCA7"/>
<path d="M244.8 100.1C244.8 102.8 242.6 105.1 239.8 105.1C237 105.1 234.8 102.9 234.8 100.1C234.8 98.4001 235.7 96.8001 237 95.9001C236.6 95.3001 236.3 94.6001 236.3 93.8001C236.3 91.9001 237.8 90.4001 239.8 90.4001C241.7 90.4001 243.2 91.9001 243.2 93.8001C243.2 94.6001 242.9 95.3001 242.5 95.9001C243.9 96.8001 244.8 98.3001 244.8 100.1ZM242.5 100.1C242.5 98.6001 241.3 97.4001 239.8 97.4001C238.3 97.4001 237.1 98.6001 237.1 100.1C237.1 101.6 238.3 102.8 239.8 102.8C241.3 102.8 242.5 101.5 242.5 100.1ZM238.6 93.8001C238.6 94.4001 239.1 95.0001 239.8 95.0001C240.4 95.0001 240.9 94.5001 240.9 93.8001C240.9 93.2001 240.4 92.7001 239.8 92.7001C239.1 92.7001 238.6 93.2001 238.6 93.8001Z" fill="#24CCA7"/>
<path d="M248.1 95.5001C248.1 92.7001 250.4 90.4001 253.2 90.4001C255.8 90.4001 258 92.4001 258.2 94.9001C258.2 95.3001 258.2 95.7001 258.2 96.1001C258.2 97.5001 258 99.0001 257.5 100.4C257 101.8 256.1 103.1 254.8 104C253.9 104.6 252.9 104.9 251.7 105C251.1 105 250.5 104.5 250.5 103.9C250.5 103.3 251 102.8 251.6 102.7C252.4 102.7 253 102.4 253.6 102.1C254.1 101.7 254.6 101.3 254.9 100.6C255 100.4 255.1 100.2 255.2 100.1C254.6 100.4 253.9 100.5 253.2 100.5C250.3 100.5 248.1 98.3001 248.1 95.5001ZM250.4 95.5001C250.4 97.0001 251.6 98.3001 253.2 98.3001C254.7 98.3001 255.9 97.0001 255.9 95.5001C255.9 94.0001 254.7 92.8001 253.2 92.8001C251.6 92.7001 250.4 93.9001 250.4 95.5001Z" fill="#24CCA7"/>
<path d="M261.5 106.9C262.5 106.6 263 105.9 262.9 105C262.3 104.8 261.7 104.3 261.7 103.6V103.4C261.7 102.6 262.3 102 263.1 102C264 102 264.6 102.7 264.6 103.8V104C264.6 105.4 264.2 106.4 263.6 107.1C263 107.6 262.2 108 261.6 108C261.2 108 261 107.7 261 107.4C261 107.2 261.2 107 261.5 106.9Z" fill="#24CCA7"/>
<path d="M266.1 95.5001C266.1 92.7001 268.4 90.4001 271.2 90.4001C273.8 90.4001 276 92.4001 276.2 94.9001C276.2 95.3001 276.2 95.7001 276.2 96.1001C276.2 97.5001 276 99.0001 275.5 100.4C275 101.8 274.1 103.1 272.8 104C271.9 104.6 270.9 104.9 269.7 105C269.1 105 268.5 104.5 268.5 103.9C268.5 103.3 269 102.8 269.6 102.7C270.4 102.7 271 102.4 271.6 102.1C272.1 101.7 272.6 101.3 272.9 100.6C273 100.4 273.1 100.2 273.2 100.1C272.6 100.4 271.9 100.5 271.2 100.5C268.4 100.5 266.1 98.3001 266.1 95.5001ZM268.4 95.5001C268.4 97.0001 269.6 98.3001 271.2 98.3001C272.7 98.3001 273.9 97.0001 273.9 95.5001C273.9 94.0001 272.7 92.8001 271.2 92.8001C269.6 92.7001 268.4 93.9001 268.4 95.5001Z" fill="#24CCA7"/>
<path d="M279.5 95.5001C279.5 92.7001 281.8 90.4001 284.6 90.4001C287.2 90.4001 289.4 92.4001 289.6 94.9001C289.6 95.3001 289.6 95.7001 289.6 96.1001C289.6 97.5001 289.4 99.0001 288.9 100.4C288.4 101.8 287.5 103.1 286.2 104C285.3 104.6 284.3 104.9 283.1 105C282.5 105 281.9 104.5 281.9 103.9C281.9 103.3 282.4 102.8 283 102.7C283.8 102.7 284.4 102.4 285 102.1C285.5 101.7 286 101.3 286.3 100.6C286.4 100.4 286.5 100.2 286.6 100.1C286 100.4 285.3 100.5 284.6 100.5C281.8 100.5 279.5 98.3001 279.5 95.5001ZM281.8 95.5001C281.8 97.0001 283 98.3001 284.6 98.3001C286.1 98.3001 287.3 97.0001 287.3 95.5001C287.3 94.0001 286.1 92.8001 284.6 92.8001C283 92.7001 281.8 93.9001 281.8 95.5001Z" fill="#24CCA7"/>
<path d="M256.9 47.4001C256.9 47.3001 257 47.1001 257.2 47.1001H259.2C260.3 47.1001 261.3 48.0001 261.3 49.2001C261.3 50.3001 260.4 51.3001 259.2 51.3001H257.4V54.2001C257.4 54.3001 257.3 54.5001 257.1 54.5001C257 54.5001 256.8 54.4001 256.8 54.2001V47.4001H256.9ZM259.2 50.9001C260.1 50.9001 260.8 50.2001 260.8 49.3001C260.8 48.4001 260.1 47.7001 259.2 47.7001H257.4V50.9001H259.2Z" fill="#263238"/>
<path d="M267.1 49.6001V54.2001C267.1 54.3001 267 54.5001 266.8 54.5001C266.7 54.5001 266.5 54.4001 266.5 54.2001V53.4001C266.1 54.0001 265.4 54.4001 264.6 54.4001C263.3 54.4001 262.2 53.2001 262.2 51.8001C262.2 50.4001 263.3 49.2001 264.6 49.2001C265.4 49.2001 266.1 49.6001 266.5 50.2001V49.4001C266.5 49.3001 266.6 49.1001 266.8 49.1001C267 49.4001 267.1 49.5001 267.1 49.6001ZM266.6 51.9001C266.6 50.8001 265.7 49.8001 264.7 49.8001C263.7 49.8001 262.8 50.7001 262.8 51.9001C262.8 53.0001 263.7 54.0001 264.7 54.0001C265.8 54.0001 266.6 53.1001 266.6 51.9001Z" fill="#263238"/>
<path d="M269.2 49.6001C269.2 49.5001 269.3 49.4001 269.4 49.4001C269.5 49.4001 269.7 49.5001 269.7 49.6001V52.4001C269.7 53.3001 270.4 54.0001 271.3 54.0001C272.2 54.0001 272.9 53.3001 272.9 52.4001V49.6001V49.5001L273 49.4001C273 49.4001 273.1 49.4001 273.1 49.5001L273.2 49.6001V49.7001V52.5001V52.6001V54.2001C273.2 55.5001 272.1 56.6001 270.8 56.6001C270.4 56.6001 270.1 56.5001 269.7 56.4001C269.6 56.3001 269.5 56.2001 269.6 56.1001C269.7 56.0001 269.8 55.9001 269.9 56.0001C270.2 56.1001 270.4 56.2001 270.7 56.2001C271.8 56.2001 272.6 55.4001 272.6 54.3001V54.0001C272.2 54.4001 271.7 54.7001 271 54.7001C269.9 54.7001 268.9 53.8001 268.9 52.6001V49.6001H269.2Z" fill="#263238"/>
<path d="M283.1 51.5001C283.1 50.6001 282.4 49.9001 281.5 49.9001C280.6 49.9001 279.9 50.6001 279.9 51.5001V54.3001C279.9 54.4001 279.8 54.4001 279.8 54.4001H279.7C279.7 54.4001 279.7 54.4001 279.6 54.4001V51.6001C279.6 50.7001 278.9 50.0001 278 50.0001C277.1 50.0001 276.4 50.7001 276.4 51.6001V54.4001C276.4 54.5001 276.4 54.6001 276.3 54.6001C276.3 54.6001 276.3 54.6001 276.2 54.6001C276.1 54.6001 276 54.5001 276 54.4001V54.3001V51.5001V51.4001V49.6001C276 49.5001 276.1 49.4001 276.2 49.4001C276.3 49.4001 276.5 49.5001 276.5 49.6001V50.1001C276.9 49.7001 277.4 49.4001 278.1 49.4001C278.9 49.4001 279.6 49.8001 279.9 50.5001C280.3 49.9001 281 49.4001 281.7 49.4001C282.8 49.4001 283.8 50.3001 283.8 51.5001V54.3001C283.8 54.4001 283.7 54.5001 283.5 54.5001C283.4 54.5001 283.3 54.4001 283.3 54.3001V51.5001H283.1Z" fill="#263238"/>
<path d="M285.3 51.9001C285.3 50.5001 286.4 49.3 287.8 49.3C289.1 49.3 290.2 50.3001 290.3 51.7001C290.3 51.8001 290.2 51.9001 290 51.9001H285.8C285.9 53.0001 286.7 53.9001 287.8 53.9001C288.5 53.9001 289.1 53.5 289.4 53C289.5 52.9 289.6 52.9001 289.7 52.9001C289.8 53.0001 289.9 53.1 289.8 53.3C289.4 54 288.6 54.5 287.7 54.5C286.4 54.5 285.3 53.3001 285.3 51.9001ZM285.9 51.5H289.8C289.6 50.5 288.8 49.8 287.9 49.8C286.9 49.9 286.1 50.6 285.9 51.5Z" fill="#263238"/>
<path d="M295.7 51.5001C295.7 50.6001 295 49.9001 294.1 49.9001C293.2 49.9001 292.5 50.6001 292.5 51.5001V54.3001C292.5 54.3001 292.5 54.4001 292.4 54.4001C292.4 54.5001 292.3 54.5001 292.2 54.5001H292.1C292 54.5001 292 54.4001 291.9 54.4001V54.3001V51.5001V51.4001V49.7001C291.9 49.6001 292 49.4001 292.2 49.4001C292.3 49.4001 292.4 49.5001 292.4 49.7001V50.2001C292.8 49.8001 293.3 49.5001 294 49.5001C295.1 49.5001 296.1 50.4001 296.1 51.6001V54.4001C296.1 54.5001 296 54.7001 295.8 54.7001C295.7 54.7001 295.6 54.6001 295.6 54.4001V51.5001H295.7Z" fill="#263238"/>
<path d="M300.3 49.6002C300.3 49.7002 300.2 49.9002 300 49.9002H299.3V53.6002C299.3 53.9002 299.6 54.0002 299.7 54.0002C299.8 54.0002 300 54.1002 300 54.3002C300 54.4002 299.9 54.6002 299.7 54.6002C299.2 54.6002 298.8 54.2002 298.8 53.7002V50.0002H298.2C298 50.0002 298 49.9002 298 49.7002C298 49.6002 298 49.4002 298.2 49.4002H298.8V47.5002C298.8 47.4002 298.9 47.2002 299 47.2002C299.1 47.2002 299.3 47.3002 299.3 47.5002V49.4002H300C300.1 49.4002 300.3 49.5002 300.3 49.6002Z" fill="#263238"/>
<path d="M306.2 54.5001C306 54.5001 305.9 54.4001 305.9 54.2001V47.4001C305.9 47.3001 306 47.1001 306.2 47.1001H307.5C309.5 47.1001 311.2 48.7001 311.2 50.8001C311.2 52.8001 309.6 54.4001 307.5 54.4001H306.2V54.5001ZM307.5 54.0001C309.2 54.0001 310.6 52.6001 310.6 50.9001C310.6 49.2001 309.2 47.8001 307.5 47.7001H306.4V54.0001H307.5Z" fill="#263238"/>
<path d="M316.6 49.6001V54.2001C316.6 54.3001 316.5 54.5001 316.4 54.5001C316.3 54.5001 316.1 54.4001 316.1 54.2001V53.4001C315.7 54.0001 315 54.4001 314.2 54.4001C312.9 54.4001 311.8 53.2001 311.8 51.8001C311.8 50.4001 312.9 49.2001 314.2 49.2001C315 49.2001 315.7 49.6001 316.1 50.2001V49.4001C316.1 49.3001 316.2 49.1001 316.4 49.1001C316.5 49.4001 316.6 49.5001 316.6 49.6001ZM316.1 51.9001C316.1 50.8001 315.2 49.8001 314.2 49.8001C313.2 49.8001 312.3 50.7001 312.3 51.9001C312.3 53.0001 313.2 54.0001 314.2 54.0001C315.3 54.0001 316.1 53.1001 316.1 51.9001Z" fill="#263238"/>
<path d="M320.6 49.6002C320.6 49.7002 320.5 49.9002 320.3 49.9002H319.6V53.6002C319.6 53.9002 319.9 54.0002 320 54.0002C320.1 54.0002 320.3 54.1002 320.3 54.3002C320.3 54.4002 320.2 54.6002 320 54.6002C319.5 54.6002 319.1 54.2002 319.1 53.7002V50.0002H318.5C318.3 50.0002 318.3 49.9002 318.3 49.7002C318.3 49.6002 318.3 49.4002 318.5 49.4002H319.1V47.5002C319.1 47.4002 319.2 47.2002 319.3 47.2002C319.4 47.2002 319.6 47.3002 319.6 47.5002V49.4002H320.3C320.5 49.4002 320.6 49.5002 320.6 49.6002Z" fill="#263238"/>
<path d="M327 49.6001V54.2001C327 54.3001 326.9 54.5001 326.7 54.5001C326.6 54.5001 326.5 54.4001 326.5 54.2001V53.4001C326.1 54.0001 325.4 54.4001 324.6 54.4001C323.3 54.4001 322.2 53.2001 322.2 51.8001C322.2 50.4001 323.3 49.2001 324.6 49.2001C325.4 49.2001 326.1 49.6001 326.5 50.2001V49.4001C326.5 49.3001 326.6 49.1001 326.7 49.1001C326.9 49.4001 327 49.5001 327 49.6001ZM326.5 51.9001C326.5 50.8001 325.6 49.8001 324.6 49.8001C323.6 49.8001 322.7 50.7001 322.7 51.9001C322.7 53.0001 323.6 54.0001 324.6 54.0001C325.6 54.0001 326.5 53.1001 326.5 51.9001Z" fill="#263238"/>
<path d="M226.1 53.7999L222.6 50.5999L226.1 47.3999L226.8 48.0999L224.2 50.5999L226.8 53.0999L226.1 53.7999Z" fill="#4A56E2"/>
<path d="M225.5 56.2C222.4 56.2 219.9 53.7 219.9 50.6C219.9 47.5 222.4 45 225.5 45C228.6 45 231.1 47.5 231.1 50.6C231.1 53.7 228.6 56.2 225.5 56.2ZM225.5 46C223 46 220.9 48 220.9 50.6C220.9 53.1 222.9 55.2 225.5 55.2C228 55.2 230.1 53.2 230.1 50.6C230.1 48.1 228 46 225.5 46Z" fill="#4A56E2"/>
<path d="M358.6 246.5C364.841 246.5 369.9 241.441 369.9 235.2C369.9 228.959 364.841 223.9 358.6 223.9C352.359 223.9 347.3 228.959 347.3 235.2C347.3 241.441 352.359 246.5 358.6 246.5Z" fill="#FFC727"/>
<path d="M355.3 242.4L351.1 235.9L352.9 234.7L355.5 238.9L363.8 228.5L365.4 229.8L355.3 242.4Z" fill="white"/>
<path d="M295.3 247C295.3 248.8 293.8 250.3 292 250.3C290.2 250.3 288.7 248.8 288.7 247C288.7 245.2 290.2 243.7 292 243.7C293.8 243.7 295.3 245.2 295.3 247Z" fill="#4A56E2"/>
<path d="M276.7 247C276.7 248.3 275.6 249.4 274.3 249.4C273 249.4 271.9 248.3 271.9 247C271.9 245.7 273 244.6 274.3 244.6C275.6 244.6 276.7 245.7 276.7 247Z" fill="#EBEBEB"/>
<path d="M312.2 247C312.2 248.3 311.1 249.4 309.8 249.4C308.5 249.4 307.4 248.3 307.4 247C307.4 245.7 308.5 244.6 309.8 244.6C311.1 244.6 312.2 245.7 312.2 247Z" fill="#EBEBEB"/>
<path d="M221.2 270.2C221.3 270.1 221.4 270.1 221.5 270.2C222 270.6 223 271.2 223.9 271.1C224.5 271.1 225.1 270.9 225.5 270.6C225.9 270.3 226.1 269.9 226.1 269.5C226.1 269.1 225.9 268.8 225.5 268.5C225.1 268.2 224.5 268 223.8 267.9C223.1 267.8 222.5 267.6 222.1 267.3C221.7 267 221.3 266.6 221.3 266C221.3 265.4 221.6 265 222.1 264.6C222.6 264.3 223.2 264.1 223.9 264.1C224.9 264.1 225.6 264.6 226.2 264.9C226.3 265 226.3 265.1 226.3 265.2C226.2 265.3 226.1 265.3 226 265.3C225.4 264.9 224.8 264.5 224 264.5C223.4 264.5 222.9 264.7 222.5 264.9C222.1 265.2 221.9 265.5 221.9 265.9C221.9 266.3 222.1 266.5 222.4 266.8C222.8 267.1 223.3 267.2 224 267.4C224.7 267.5 225.4 267.7 225.9 268.1C226.4 268.4 226.7 268.9 226.7 269.5C226.7 270.1 226.4 270.6 225.9 271C225.4 271.4 224.8 271.6 224 271.6C222.9 271.6 221.9 271 221.3 270.5C221.1 270.5 221.1 270.3 221.2 270.2Z" fill="#263238"/>
<path d="M232.7 266.8V271.4C232.7 271.5 232.6 271.7 232.4 271.7C232.3 271.7 232.1 271.6 232.1 271.4V270.6C231.7 271.2 231 271.6 230.2 271.6C228.9 271.6 227.8 270.4 227.8 269C227.8 267.6 228.9 266.4 230.2 266.4C231 266.4 231.7 266.8 232.1 267.4V266.6C232.1 266.5 232.2 266.3 232.4 266.3C232.5 266.5 232.7 266.6 232.7 266.8ZM232.2 269.1C232.2 268 231.3 267 230.3 267C229.3 267 228.4 267.9 228.4 269.1C228.4 270.2 229.3 271.2 230.3 271.2C231.3 271.1 232.2 270.2 232.2 269.1Z" fill="#263238"/>
<path d="M236.3 271.6L236.2 271.5L234.3 266.9C234.2 266.8 234.3 266.6 234.4 266.6C234.5 266.5 234.7 266.6 234.7 266.7L236.4 270.7L238.1 266.7C238.1 266.6 238.3 266.5 238.4 266.6C238.5 266.7 238.6 266.8 238.5 266.9L236.6 271.4C236.6 271.4 236.6 271.5 236.5 271.5C236.5 271.6 236.4 271.6 236.3 271.6C236.4 271.6 236.4 271.6 236.3 271.6Z" fill="#263238"/>
<path d="M240 269.1C240 267.7 241.1 266.5 242.5 266.5C243.8 266.5 244.9 267.5 245 268.9C245 269 244.9 269.1 244.7 269.1H240.5C240.6 270.2 241.4 271.1 242.5 271.1C243.2 271.1 243.8 270.7 244.1 270.2C244.2 270.1 244.3 270.1 244.4 270.1C244.5 270.2 244.6 270.3 244.5 270.5C244.1 271.2 243.3 271.7 242.4 271.7C241.1 271.6 240 270.5 240 269.1ZM240.6 268.7H244.5C244.3 267.7 243.5 267 242.6 267C241.5 267 240.7 267.7 240.6 268.7Z" fill="#263238"/>
<path d="M249.5 269C249.5 267.6 250.7 266.5 252.1 266.5C252.7 266.5 253.3 266.7 253.7 267.1C253.8 267.2 253.8 267.3 253.7 267.4C253.6 267.5 253.5 267.5 253.4 267.4C253 267.1 252.6 266.9 252.1 266.9C250.9 266.9 250 267.8 250 269C250 270.1 250.9 271.1 252.1 271.1C252.6 271.1 253.1 270.9 253.4 270.7C253.5 270.6 253.7 270.6 253.7 270.7C253.8 270.8 253.8 271 253.6 271.1C253.2 271.4 252.6 271.6 252 271.6C250.7 271.6 249.5 270.5 249.5 269Z" fill="#263238"/>
<path d="M260.1 266.8V271.4C260.1 271.5 260 271.7 259.8 271.7C259.7 271.7 259.5 271.6 259.5 271.4V270.6C259.1 271.2 258.4 271.6 257.6 271.6C256.3 271.6 255.2 270.4 255.2 269C255.2 267.6 256.3 266.4 257.6 266.4C258.4 266.4 259.1 266.8 259.5 267.4V266.6C259.5 266.5 259.6 266.3 259.8 266.3C260 266.5 260.1 266.6 260.1 266.8ZM259.6 269.1C259.6 268 258.7 267 257.7 267C256.7 267 255.8 267.9 255.8 269.1C255.8 270.2 256.7 271.2 257.7 271.2C258.8 271.1 259.6 270.2 259.6 269.1Z" fill="#263238"/>
<path d="M262.3 266.8C262.3 266.7 262.4 266.5 262.6 266.5C262.7 266.5 262.8 266.6 262.8 266.8V267.9C262.8 267.9 262.8 267.8 262.9 267.8C263.3 267.2 264 266.5 264.9 266.5C265 266.5 265.2 266.6 265.2 266.8C265.2 266.9 265.1 267 264.9 267C264.2 267 263.8 267.4 263.4 267.8C263.1 268.3 262.9 268.8 262.8 269V269.1V271.3C262.8 271.4 262.7 271.6 262.6 271.6C262.5 271.6 262.3 271.5 262.3 271.3V266.8Z" fill="#263238"/>
<path d="M270.7 270.6C270.3 271.2 269.5 271.6 268.7 271.6C267.3 271.6 266.2 270.5 266.2 269.1C266.2 267.7 267.3 266.5 268.7 266.5C269.5 266.5 270.2 266.9 270.7 267.5V264.6C270.7 264.5 270.8 264.4 271 264.4C271.1 264.4 271.3 264.5 271.3 264.6V269V269.1V271.4C271.3 271.5 271.2 271.7 271 271.7C270.9 271.7 270.7 271.6 270.7 271.4V270.6ZM270.7 269.2V269C270.7 267.9 269.8 267 268.7 267C267.6 267 266.7 267.9 266.7 269.1C266.7 270.2 267.6 271.1 268.7 271.1C269.8 271.1 270.7 270.2 270.7 269.2Z" fill="#263238"/>
<path d="M280.3 268.6C280.3 267.7 279.6 267 278.7 267C277.8 267 277.1 267.7 277.1 268.6V271.4C277.1 271.4 277.1 271.5 277 271.5C277 271.6 276.9 271.6 276.8 271.6H276.7C276.6 271.6 276.6 271.5 276.5 271.5V271.4V268.6V268.5V266.8C276.5 266.7 276.6 266.5 276.8 266.5C276.9 266.5 277 266.6 277 266.8V267.3C277.4 266.9 277.9 266.6 278.6 266.6C279.7 266.6 280.7 267.5 280.7 268.7V271.5C280.7 271.6 280.6 271.8 280.4 271.8C280.3 271.8 280.1 271.7 280.1 271.5V268.6H280.3Z" fill="#263238"/>
<path d="M283 266.7C283 266.6 283.1 266.5 283.3 266.5C283.4 266.5 283.6 266.6 283.6 266.7V269.5C283.6 270.4 284.3 271.1 285.2 271.1C286.1 271.1 286.8 270.4 286.8 269.5V266.7C286.8 266.6 286.9 266.5 287.1 266.5C287.2 266.5 287.4 266.6 287.4 266.7V269.5C287.4 270.6 286.5 271.6 285.3 271.6C284.2 271.6 283.2 270.7 283.2 269.5V266.7H283Z" fill="#263238"/>
<path d="M296.8 268.6C296.8 267.7 296.1 267 295.2 267C294.3 267 293.6 267.7 293.6 268.6V271.4C293.6 271.5 293.5 271.5 293.5 271.5H293.4C293.4 271.5 293.4 271.5 293.3 271.5V268.7C293.3 267.8 292.6 267.1 291.7 267.1C290.8 267.1 290.1 267.8 290.1 268.7V271.5C290.1 271.6 290.1 271.7 290 271.7C290 271.7 290 271.7 289.9 271.7C289.8 271.7 289.7 271.6 289.7 271.5V271.4V268.6V268.5V266.7C289.7 266.6 289.8 266.5 289.9 266.5C290 266.5 290.2 266.6 290.2 266.7V267.2C290.6 266.8 291.1 266.5 291.8 266.5C292.6 266.5 293.3 266.9 293.6 267.6C294 267 294.7 266.5 295.4 266.5C296.5 266.5 297.5 267.4 297.5 268.6V271.4C297.5 271.5 297.4 271.6 297.2 271.6C297.1 271.6 297 271.5 297 271.4V268.6H296.8Z" fill="#263238"/>
<path d="M299.4 269.2V269.1V269V264.6C299.4 264.5 299.5 264.4 299.6 264.4C299.7 264.4 299.9 264.5 299.9 264.6V267.5C300.3 266.9 301.1 266.5 301.9 266.5C303.3 266.5 304.4 267.6 304.4 269.1C304.4 270.5 303.3 271.6 301.9 271.6C301.1 271.6 300.4 271.2 299.9 270.6V271.3C299.9 271.4 299.8 271.6 299.6 271.6C299.5 271.6 299.4 271.5 299.4 271.3V269.2ZM299.9 269.1C299.9 270.2 300.8 271.1 301.9 271.1C303 271.1 303.9 270.2 303.9 269.1C303.9 268 303 267 301.9 267C300.8 267 300 267.9 299.9 269.1Z" fill="#263238"/>
<path d="M305.9 269.1C305.9 267.7 307 266.5 308.4 266.5C309.7 266.5 310.8 267.5 310.9 268.9C310.9 269 310.8 269.1 310.6 269.1H306.4C306.5 270.2 307.3 271.1 308.4 271.1C309.1 271.1 309.7 270.7 310 270.2C310.1 270.1 310.2 270.1 310.3 270.1C310.4 270.2 310.5 270.3 310.4 270.5C310 271.2 309.2 271.7 308.3 271.7C307 271.6 305.9 270.5 305.9 269.1ZM306.5 268.7H310.4C310.2 267.7 309.4 267 308.5 267C307.5 267 306.7 267.7 306.5 268.7Z" fill="#263238"/>
<path d="M312.4 266.8C312.4 266.7 312.5 266.5 312.7 266.5C312.8 266.5 312.9 266.6 312.9 266.8V267.9C312.9 267.9 312.9 267.8 313 267.8C313.4 267.2 314.1 266.5 315 266.5C315.1 266.5 315.2 266.6 315.2 266.8C315.2 266.9 315.1 267 315 267C314.3 267 313.9 267.4 313.5 267.8C313.2 268.3 313 268.8 312.9 269V269.1V271.3C312.9 271.4 312.8 271.6 312.7 271.6C312.6 271.6 312.4 271.5 312.4 271.3V266.8Z" fill="#263238"/>
<path opacity="0.5" d="M356.4 273.5H342.4C339.6 273.5 337.2 271.2 337.2 268.3V267.8C337.2 265 339.5 262.6 342.4 262.6H356.4C359.2 262.6 361.6 264.9 361.6 267.8V268.3C361.5 271.2 359.2 273.5 356.4 273.5Z" fill="#4A56E2"/>
<path d="M360.6 268.1C360.6 270.6 358.6 272.7 356 272.7C353.5 272.7 351.4 270.7 351.4 268.1C351.4 265.6 353.4 263.5 356 263.5C358.6 263.5 360.6 265.6 360.6 268.1Z" fill="#4A56E2"/>
<path d="M344.6 298.7H239.4C236.086 298.7 233.4 301.386 233.4 304.7V315.2C233.4 318.514 236.086 321.2 239.4 321.2H344.6C347.914 321.2 350.6 318.514 350.6 315.2V304.7C350.6 301.386 347.914 298.7 344.6 298.7Z" fill="#24CCA7"/>
<path d="M243.5 305.7C243.5 305.6 243.6 305.4 243.8 305.4H245.8C246.9 305.4 247.9 306.3 247.9 307.5C247.9 308.7 247 309.6 245.8 309.6H244V312.5C244 312.6 243.9 312.7 243.7 312.7C243.6 312.7 243.4 312.6 243.4 312.5V305.7H243.5ZM245.8 309.1C246.7 309.1 247.4 308.4 247.4 307.5C247.4 306.6 246.7 305.9 245.8 305.9H244V309.1H245.8Z" fill="white"/>
<path d="M249.5 307.9C249.5 307.8 249.6 307.7 249.8 307.7C249.9 307.7 250 307.8 250 307.9V309C250 309 250 308.9 250.1 308.9C250.5 308.3 251.2 307.6 252.1 307.6C252.2 307.6 252.4 307.7 252.4 307.8C252.4 307.9 252.3 308.1 252.1 308.1C251.4 308.1 251 308.5 250.6 308.9C250.3 309.4 250.1 309.9 250 310.1V310.2V312.4C250 312.5 249.9 312.6 249.8 312.6C249.7 312.6 249.5 312.5 249.5 312.4V307.9Z" fill="white"/>
<path d="M256 307.6C257.3 307.6 258.4 308.8 258.4 310.2C258.4 311.6 257.3 312.8 256 312.8C254.7 312.8 253.6 311.6 253.6 310.2C253.5 308.8 254.6 307.6 256 307.6ZM256 312.2C257 312.2 257.9 311.3 257.9 310.1C257.9 309 257 308 256 308C255 308 254.1 308.9 254.1 310.1C254.1 311.3 254.9 312.2 256 312.2Z" fill="white"/>
<path d="M260 310.2C260 308.8 261.2 307.7 262.6 307.7C263.2 307.7 263.8 307.9 264.2 308.3C264.3 308.4 264.3 308.5 264.2 308.6C264.1 308.7 264 308.7 263.9 308.6C263.5 308.3 263.1 308.1 262.6 308.1C261.4 308.1 260.5 309 260.5 310.2C260.5 311.3 261.4 312.3 262.6 312.3C263.1 312.3 263.6 312.1 263.9 311.9C264 311.8 264.2 311.8 264.2 311.9C264.3 312 264.3 312.2 264.1 312.3C263.7 312.6 263.1 312.8 262.5 312.8C261.1 312.7 260 311.6 260 310.2Z" fill="white"/>
<path d="M265.8 310.2C265.8 308.8 266.9 307.6 268.3 307.6C269.6 307.6 270.7 308.6 270.8 310C270.8 310.1 270.7 310.2 270.5 310.2H266.3C266.4 311.3 267.2 312.2 268.3 312.2C269 312.2 269.6 311.8 269.9 311.3C270 311.2 270.1 311.2 270.2 311.2C270.3 311.3 270.4 311.4 270.3 311.6C269.9 312.3 269.1 312.8 268.2 312.8C266.9 312.7 265.8 311.6 265.8 310.2ZM266.3 309.8H270.2C270 308.8 269.2 308.1 268.3 308.1C267.3 308.1 266.5 308.8 266.3 309.8Z" fill="white"/>
<path d="M272.1 310.2C272.1 308.8 273.2 307.6 274.6 307.6C275.9 307.6 277 308.6 277.1 310C277.1 310.1 277 310.2 276.8 310.2H272.6C272.7 311.3 273.5 312.2 274.6 312.2C275.3 312.2 275.9 311.8 276.2 311.3C276.3 311.2 276.4 311.2 276.5 311.2C276.6 311.3 276.7 311.4 276.6 311.6C276.2 312.3 275.4 312.8 274.5 312.8C273.2 312.7 272.1 311.6 272.1 310.2ZM272.7 309.8H276.6C276.4 308.8 275.6 308.1 274.7 308.1C273.6 308.1 272.8 308.8 272.7 309.8Z" fill="white"/>
<path d="M282.9 311.7C282.5 312.3 281.7 312.7 280.9 312.7C279.5 312.7 278.4 311.6 278.4 310.2C278.4 308.8 279.5 307.6 280.9 307.6C281.7 307.6 282.4 308 282.9 308.6V305.7C282.9 305.6 283 305.4 283.2 305.4C283.3 305.4 283.5 305.5 283.5 305.7V310.1V310.2V312.5C283.5 312.6 283.4 312.7 283.2 312.7C283.1 312.7 282.9 312.6 282.9 312.5V311.7ZM282.9 310.3V310.1C282.9 309 282 308.1 280.9 308.1C279.8 308.1 278.9 309 278.9 310.2C278.9 311.3 279.8 312.2 280.9 312.2C282 312.2 282.9 311.3 282.9 310.3Z" fill="white"/>
<path d="M290.7 307.9C290.7 308 290.6 308.2 290.4 308.2H289.7V311.9C289.7 312.2 290 312.3 290.1 312.3C290.2 312.3 290.4 312.4 290.4 312.6C290.4 312.7 290.3 312.8 290.1 312.8C289.6 312.8 289.2 312.4 289.2 311.9V308.2H288.6C288.3 308.2 288.3 308.1 288.3 307.9C288.3 307.8 288.3 307.6 288.6 307.6H289.2V305.7C289.2 305.6 289.3 305.4 289.5 305.4C289.6 305.4 289.8 305.5 289.8 305.7V307.6H290.5C290.5 307.6 290.7 307.7 290.7 307.9Z" fill="white"/>
<path d="M295.1 307.6C296.4 307.6 297.5 308.8 297.5 310.2C297.5 311.6 296.4 312.8 295.1 312.8C293.8 312.8 292.7 311.6 292.7 310.2C292.7 308.8 293.7 307.6 295.1 307.6ZM295.1 312.2C296.1 312.2 297 311.3 297 310.1C297 309 296.1 308 295.1 308C294.1 308 293.2 308.9 293.2 310.1C293.2 311.3 294 312.2 295.1 312.2Z" fill="white"/>
<path d="M302.2 310.2C302.2 308.8 303.4 307.7 304.8 307.7C305.4 307.7 306 307.9 306.4 308.3C306.5 308.4 306.5 308.5 306.4 308.6C306.3 308.7 306.2 308.7 306.1 308.6C305.7 308.3 305.3 308.1 304.8 308.1C303.6 308.1 302.7 309 302.7 310.2C302.7 311.3 303.6 312.3 304.8 312.3C305.3 312.3 305.8 312.1 306.1 311.9C306.2 311.8 306.4 311.8 306.4 311.9C306.5 312 306.5 312.2 306.3 312.3C305.9 312.6 305.3 312.8 304.7 312.8C303.4 312.7 302.2 311.6 302.2 310.2Z" fill="white"/>
<path d="M310.5 307.6C311.8 307.6 312.9 308.8 312.9 310.2C312.9 311.6 311.8 312.8 310.5 312.8C309.2 312.8 308.1 311.6 308.1 310.2C308.1 308.8 309.2 307.6 310.5 307.6ZM310.5 312.2C311.5 312.2 312.4 311.3 312.4 310.1C312.4 309 311.5 308 310.5 308C309.5 308 308.6 308.9 308.6 310.1C308.6 311.3 309.5 312.2 310.5 312.2Z" fill="white"/>
<path d="M318.5 309.7C318.5 308.8 317.8 308.1 316.9 308.1C316 308.1 315.3 308.8 315.3 309.7V312.5C315.3 312.5 315.3 312.6 315.2 312.6C315.2 312.7 315.1 312.7 315 312.7H314.9C314.8 312.7 314.8 312.6 314.7 312.6V312.5V309.7V309.6V307.9C314.7 307.8 314.8 307.7 314.9 307.7C315 307.7 315.1 307.8 315.1 307.9V308.4C315.5 308 316 307.7 316.7 307.7C317.8 307.7 318.8 308.6 318.8 309.8V312.6C318.8 312.7 318.7 312.8 318.5 312.8C318.4 312.8 318.3 312.7 318.3 312.6V309.7H318.5Z" fill="white"/>
<path d="M323.5 305.7C323.5 305.8 323.4 306 323.3 306C322.9 306 322.8 306.1 322.7 306.2C322.6 306.3 322.5 306.6 322.5 307V307.5H323.2C323.3 307.5 323.5 307.6 323.5 307.7C323.5 307.8 323.4 308 323.2 308H322.5V312.4C322.5 312.5 322.4 312.6 322.2 312.6C322.1 312.6 321.9 312.5 321.9 312.4V308H321.2C321.1 308 320.9 307.9 320.9 307.7C320.9 307.6 321 307.5 321.2 307.5H321.9V307C321.9 306.5 322 306.1 322.2 305.8C322.4 305.5 322.8 305.4 323.2 305.4C323.4 305.4 323.5 305.5 323.5 305.7Z" fill="white"/>
<path d="M325.1 306.2C325.1 306.1 325.2 305.9 325.4 305.9C325.5 305.9 325.7 306 325.7 306.2V306.4C325.7 306.5 325.6 306.7 325.4 306.7C325.3 306.7 325.1 306.6 325.1 306.4V306.2ZM325.1 307.9C325.1 307.8 325.2 307.6 325.4 307.6C325.5 307.6 325.7 307.7 325.7 307.9V312.5C325.7 312.6 325.6 312.7 325.4 312.7C325.3 312.7 325.1 312.6 325.1 312.5V307.9Z" fill="white"/>
<path d="M328 307.9C328 307.8 328.1 307.7 328.3 307.7C328.4 307.7 328.5 307.8 328.5 307.9V309C328.5 309 328.5 308.9 328.6 308.9C329 308.3 329.7 307.6 330.6 307.6C330.7 307.6 330.8 307.7 330.8 307.8C330.8 307.9 330.7 308.1 330.6 308.1C329.9 308.1 329.5 308.5 329.1 308.9C328.8 309.4 328.6 309.9 328.5 310.1V310.2V312.4C328.5 312.5 328.4 312.6 328.3 312.6C328.2 312.6 328 312.5 328 312.4V307.9Z" fill="white"/>
<path d="M339.9 309.7C339.9 308.8 339.2 308.1 338.3 308.1C337.4 308.1 336.7 308.8 336.7 309.7V312.5C336.7 312.6 336.6 312.6 336.6 312.6H336.5C336.5 312.6 336.5 312.6 336.4 312.6V309.8C336.4 308.9 335.7 308.2 334.8 308.2C333.9 308.2 333.2 308.9 333.2 309.8V312.6C333.2 312.7 333.2 312.8 333.1 312.8C333.1 312.8 333.1 312.8 333 312.8C332.9 312.8 332.8 312.7 332.8 312.6V312.5V309.7V309.6V307.8C332.8 307.7 332.9 307.6 333 307.6C333.1 307.6 333.3 307.7 333.3 307.8V308.3C333.7 307.9 334.2 307.6 334.9 307.6C335.7 307.6 336.4 308 336.7 308.7C337.1 308.1 337.8 307.6 338.5 307.6C339.6 307.6 340.6 308.5 340.6 309.7V312.5C340.6 312.6 340.5 312.7 340.3 312.7C340.2 312.7 340.1 312.6 340.1 312.5V309.7H339.9Z" fill="white"/>
<path d="M354.6 381.1C357 381.5 421.7 372.2 423.9 370.3C424.8 369.6 424 360.1 422.6 348.6C422.6 348.5 422.6 348.4 422.6 348.2C422.3 345.8 414.1 306.7 414.1 306.7L370.8 312.8L380.8 353.7L380.9 354.4C380.9 354.4 357.7 369 355.5 371.4C353.3 373.9 352.2 380.7 354.6 381.1Z" fill="#F7A9A0"/>
<path d="M423.9 370.3C421.7 372.2 357 381.6 354.6 381.1C352.2 380.7 353.3 373.9 355.5 371.5C357.7 369.1 380.9 354.5 380.9 354.5L380.8 353.8L379.7 349.1L421.6 342.8C421.9 344.5 422.6 347.9 422.6 348.3C422.6 348.4 422.6 348.5 422.6 348.7C424 360.1 424.8 369.6 423.9 370.3Z" fill="#FFC727"/>
<path d="M354.6 381.1C355.8 381.3 373.4 379 390.6 376.4C394.1 375.9 397.5 375.3 400.8 374.8C413 372.9 423.1 371 424 370.3C424.9 369.6 424.1 360.3 422.8 349.1C422.8 348.9 422.8 348.8 422.7 348.6C422.7 348.5 422.7 348.4 422.7 348.2L380.9 353.7L381 354.4C381 354.4 357.8 369 355.6 371.4C353.3 373.9 352.2 380.7 354.6 381.1Z" fill="#A6A6A6"/>
<path d="M355 378.5C365.9 376.7 409.9 370.3 420.8 369.3C420.9 369.3 420.9 369.4 420.8 369.4C410.1 371.5 366 377.5 355.1 378.7C354.8 378.7 354.7 378.6 355 378.5Z" fill="#263238"/>
<path d="M376.2 354.6C380.4 353.2 385.7 353.1 389.4 355.7C389.5 355.8 389.4 356 389.3 356C384.9 355.3 380.8 355 376.3 355.2C375.9 355.2 375.9 354.7 376.2 354.6Z" fill="#263238"/>
<path d="M373.3 356.9C377.5 355.5 382.8 355.4 386.5 358C386.6 358.1 386.5 358.3 386.4 358.3C382 357.6 377.9 357.3 373.4 357.5C373.1 357.5 373 357 373.3 356.9Z" fill="#263238"/>
<path d="M370.5 359.3C374.7 357.9 380 357.8 383.7 360.4C383.8 360.5 383.7 360.7 383.6 360.7C379.2 360 375.1 359.7 370.6 359.9C370.3 359.8 370.2 359.4 370.5 359.3Z" fill="#263238"/>
<path d="M374.6 346.6L423.3 339.9C423.3 339.9 411.2 256.9 411.6 255C412.1 252.5 440.6 136.1 440.6 136.1H400.7C400.7 136.1 367.9 244.1 366.6 254.5C364.4 271.3 374.6 346.6 374.6 346.6Z" fill="#37474F"/>
<path d="M376.8 336.7C385.1 335 415.4 331.4 418.7 331.5C418.8 331.5 418.8 331.6 418.7 331.6C415.5 332.5 389.5 336.1 376.8 336.9C376.7 336.9 376.7 336.7 376.8 336.7Z" fill="#263238"/>
<path d="M431.4 145C430.4 147.9 429.6 150.8 428.7 153.6C427.8 156.5 427 159.4 426.2 162.3C424.5 168 422.9 173.8 421.3 179.5C418 191.1 414.9 202.7 411.8 214.4C410.3 220.2 408.8 225.9 407.3 231.7C405.8 237.5 404.2 243.3 402.9 249.1C402.3 251.9 401.9 254.6 402 257.5C402.2 260.4 402.7 263.2 403.2 266.1C404.2 272 405.1 278 406.1 283.9C408 295.9 410.1 307.9 412.1 319.9C412.4 321.4 412.6 322.8 412.9 324.3C412.9 324.4 413.1 324.4 413.1 324.3C411.5 312.4 409.5 300.5 407.6 288.6C406.7 282.7 405.7 276.9 404.8 271C404.3 267.9 403.8 264.9 403.3 261.8C402.9 258.9 402.6 255.9 403 253C403.4 250.1 404.2 247.3 404.9 244.5C405.6 241.6 406.3 238.8 407.1 235.9C408.6 230.1 410.1 224.3 411.6 218.6C414.6 207 417.8 195.4 420.9 183.9C424.1 172.4 427.3 160.9 430.5 149.4C430.9 148 431.3 146.6 431.7 145.1C431.5 145 431.4 144.9 431.4 145Z" fill="#263238"/>
<path d="M396.3 392C398.6 392.7 464 391.5 466.4 389.9C467.3 389.3 467.7 379.8 467.9 368.2C467.9 368.1 467.9 368 467.9 367.8C467.9 365.4 466.6 325.6 466.6 325.6L423.9 326.3L425.8 368.2V368.9C425.8 368.9 401 380.6 398.5 382.6C395.9 384.7 394 391.3 396.3 392Z" fill="#F7A9A0"/>
<path d="M468 363.3C468 364.8 468 366.4 468 367.9V368.3C467.9 379.8 467.5 389.4 466.5 390C464.1 391.6 398.7 392.8 396.4 392.1C394.1 391.4 396 384.8 398.5 382.7C401 380.6 425.8 369 425.8 369V368.3L425.6 363.8C433.1 363.6 454.7 363.4 468 363.3Z" fill="#FFC727"/>
<path d="M396.3 392C398.6 392.7 464 391.5 466.4 389.9C467.3 389.3 467.7 379.8 467.9 368.2C467.9 368.1 467.9 368 467.9 367.8L425.7 368.1V368.8C425.7 368.8 400.9 380.5 398.4 382.5C395.9 384.7 394 391.3 396.3 392Z" fill="#A6A6A6"/>
<path d="M397 389.4C408 388.9 452.5 388.1 463.4 388.4C463.5 388.4 463.5 388.5 463.4 388.5C452.5 389.2 408 389.7 397 389.6C396.8 389.6 396.8 389.4 397 389.4Z" fill="#263238"/>
<path d="M421 368.4C425.3 367.5 430.6 368.1 434 371.1C434.1 371.2 434 371.4 433.8 371.4C429.5 370.1 425.5 369.3 421 369C420.8 368.9 420.7 368.4 421 368.4Z" fill="#263238"/>
<path d="M418 370.3C422.3 369.4 427.6 370 431 373C431.1 373.1 431 373.3 430.8 373.3C426.5 372 422.5 371.2 418 370.9C417.7 370.8 417.6 370.4 418 370.3Z" fill="#263238"/>
<path d="M414.9 372.2C419.2 371.3 424.5 371.9 427.9 374.9C428 375 427.9 375.2 427.7 375.2C423.4 373.9 419.4 373.1 414.9 372.8C414.6 372.8 414.5 372.3 414.9 372.2Z" fill="#263238"/>
<path d="M401.8 136.1C401.8 136.1 402.7 155.2 407.1 170.3C407.4 171.6 407.8 172.8 408.2 174C408.2 174 409.9 174 416.9 178.2L422.7 361.1L469.8 360.6C469.8 360.6 462.3 263.7 462.3 257.5C462.4 247.5 456.9 179.9 457.5 178.2C463.3 160.7 453.7 136.1 453.7 136.1H401.8Z" fill="#37474F"/>
<path d="M424.3 352.3C437.6 351.5 463.3 351.3 466.5 351.8C466.6 351.8 466.6 351.9 466.5 351.9C463.2 352.5 432 353.1 424.3 352.5C424.2 352.5 424.2 352.4 424.3 352.3Z" fill="#263238"/>
<path d="M421.4 275.9C420.8 254.9 420.1 234 419.3 213C418.8 201.2 418.3 189.4 417.6 177.5C417.6 177.1 416.9 177.1 417 177.5C417.5 198.6 418.3 219.6 419 240.7C419.7 261.7 420.4 282.6 421.1 303.6C421.5 315.4 421.9 327.2 422.4 339.1C422.4 339.3 422.7 339.3 422.7 339.1C422.5 318 422 297 421.4 275.9Z" fill="#263238"/>
<path d="M458.2 305.2C457.2 291.5 456.2 277.7 455.1 264C454.1 250.3 453.1 236.5 452 222.8C451.5 215.9 451 209.1 450.5 202.2C450.2 198.8 450 195.3 449.7 191.9C449.4 188.5 449 185.1 449.1 181.7C449.2 178 450.8 174.7 451.7 171.1C452.5 167.7 452.8 164.2 452.8 160.8C452.7 153.6 451.1 146.6 449.6 139.6C449.5 139.2 448.9 139.4 449 139.8C450.5 146.2 451.9 152.7 452.2 159.3C452.3 162.6 452.2 165.9 451.5 169.1C450.9 172.2 449.6 175.1 448.9 178.2C448.1 181.4 448.6 184.6 448.8 187.9C449.1 191.3 449.3 194.8 449.5 198.2C450 204.9 450.5 211.7 451 218.4C453 245.8 455 273.1 457.2 300.5C458.4 315.9 459.4 331.3 460.9 346.7C460.9 346.8 461.1 346.8 461.1 346.7C460.3 332.7 459.2 318.9 458.2 305.2Z" fill="#263238"/>
<path d="M448.6 156.8C447.8 156.5 446.9 156.4 446.1 156.2C445.2 156 444.4 155.7 443.6 155.3C442.1 154.6 440.5 153.7 439.2 152.7C437.8 151.6 437 150.2 436.4 148.6C436 147.8 435.7 146.9 435.4 146C435.2 145.6 435.1 145.2 434.9 144.7C434.8 144.5 434.4 143.6 434.3 143.4H434.4V143.3C434.3 143.2 434.3 143.2 434.2 143.2C434.2 143.2 434.1 143.2 434.1 143.3C433.9 143.6 434.1 143.9 434.2 144.2C434.3 144.8 434.5 145.3 434.6 145.9C434.9 146.9 435.1 147.9 435.4 148.8C436 150.6 436.8 152.3 438.2 153.5C439.6 154.7 441.3 155.7 443.1 156.3C444 156.6 444.9 156.9 445.9 157.1C446.8 157.2 447.7 157.4 448.6 157.3C448.7 157.1 448.7 156.9 448.6 156.8Z" fill="#263238"/>
<path d="M410.7 167.4C410.6 165.8 410.5 164.1 410.3 162.5C410 158.8 409.6 155 408.9 151.3C408.8 151 408.4 151.1 408.5 151.4C408.8 154.3 409.1 157.2 409.4 160.1C409.7 163 410 165.9 410.1 168.8C410.1 169.7 410.1 171.2 409 171.4C407.6 171.7 406.9 169.8 406.5 168.8C405.6 166.2 405.1 163.5 404.7 160.9C404.2 157.8 404 154.7 403.7 151.7C403.7 151.6 403.5 151.6 403.5 151.7C403.5 157.8 403.6 164.2 405.8 170C406.2 171.1 407 172.3 408.3 172.4C408.3 172.4 408.3 172.4 408.4 172.4V172.5C408.4 172.7 408.5 172.8 408.5 173C408.5 173.1 408.6 173.3 408.6 173.4C408.7 173.7 408.7 174 408.8 174.3C408.9 174.6 409.2 174.5 409.2 174.2C409.3 174.2 409.3 174.1 409.3 174C409.3 173.4 409.1 172.8 408.9 172.3C409.6 172.2 410.2 171.7 410.5 171C411 169.8 410.8 168.5 410.7 167.4Z" fill="#263238"/>
<path d="M406.3 172.8C411 174.7 415.5 177.2 419.8 179.8C420 179.9 419.8 180.2 419.7 180.1C415.2 177.9 410.5 175.8 406.1 173.3C405.7 173.1 405.9 172.7 406.3 172.8Z" fill="#263238"/>
<path d="M405.8 111.3C408.6 113.5 411.3 115.1 414 116.4C409.6 108.9 410.2 91.9999 410.8 94.3999C413.4 105.9 420.6 118.5 423.4 119.2C430.8 120.2 437.5 118.2 443.1 115C437.4 106.5 437.6 89.3999 438 90.3999C442.2 101.6 450.9 108.1 452.4 108.1C458 102.8 460.9 97.4999 460.1 96.8999C454.3 92.9999 449.4 82.8999 445 72.1999C440.6 61.6999 438.4 51.5999 432.2 42.1999C426.6 33.5999 415.3 31.9999 408.9 36.3999C392.2 47.9999 402.2 108.6 405.8 111.3Z" fill="#263238"/>
<path d="M423.2 37C427.8 38.1 431.7 42.3 434.1 46.3C437.3 51.5 439.5 57.4 442.1 63C447.4 73.9 454 83.9 462.3 92.7C462.5 92.9 462.2 93.2 462 93C453 86.2 446.8 76.5 441.8 66.5C439.2 61.4 437.2 56 434.7 50.9C433.4 48.1 431.8 45.3 429.8 42.9C427.8 40.6 425.5 39.2 422.9 37.9C422.5 37.5 422.7 36.8 423.2 37Z" fill="#263238"/>
<path d="M482.8 254.7L417.1 266.4L414.7 197.8L461.3 189.4L482.8 254.7Z" fill="#EBEBEB"/>
<path d="M461.3 189.4L465.9 257.7L482.8 254.7L461.3 189.4Z" fill="#4A56E2"/>
<path d="M427.7 200.5H425.3C425.3 200.4 425.3 193.8 425.3 187.1C425.4 179.8 431.5 175.2 437.3 174.9C441.7 174.7 447.1 177 448 184.2C448.9 192 449.1 195.7 449.1 195.8L446.7 195.9C446.7 195.9 446.5 192.1 445.6 184.4C445 178.8 441 177 437.5 177.2C432.7 177.5 427.8 181.2 427.7 187C427.7 193.8 427.7 200.4 427.7 200.5Z" fill="#263238"/>
<path d="M466.7 257C467.9 255.8 469.1 254.7 470.4 253.5C471.6 252.4 472.9 251.3 474.2 250.2L474.4 250.1L474.6 250.2C475.9 250.8 477.1 251.5 478.4 252.2C479.6 252.9 480.9 253.6 482.1 254.3C480.8 253.8 479.5 253.2 478.2 252.7C476.9 252.1 475.6 251.5 474.4 250.9H474.8C473.5 252 472.2 253.1 470.9 254.1C469.4 255 468.1 256 466.7 257Z" fill="white"/>
<path d="M474.4 250.5C473.3 246.3 472.4 242.1 471.4 237.8C470.4 233.6 469.5 229.3 468.6 225.1C467.7 220.8 466.8 216.6 466 212.3L464.7 205.9C464.3 203.8 463.9 201.6 463.5 199.5C464 201.6 464.5 203.7 465 205.8L466.5 212.1C467.5 216.3 468.4 220.6 469.3 224.8C470.2 229.1 471.1 233.3 471.9 237.6C472.8 242 473.7 246.2 474.4 250.5Z" fill="white"/>
<path d="M429.7 199.8C430.1 201.5 429 203.2 427.2 203.6C425.5 204 423.8 202.9 423.4 201.1C423 199.4 424.1 197.7 425.9 197.3C427.6 196.9 429.3 198 429.7 199.8Z" fill="#263238"/>
<path d="M450.8 195.2C451.2 196.9 450.1 198.6 448.3 199C446.6 199.4 444.9 198.3 444.5 196.5C444.1 194.8 445.2 193.1 447 192.7C448.7 192.4 450.5 193.5 450.8 195.2Z" fill="#263238"/>
<path d="M475.2 274.3H398.1L409.3 195.8H463.9L475.2 274.3Z" fill="#FFC727"/>
<path opacity="0.1" d="M463.9 195.8L455.4 274.3H475.2L463.9 195.8Z" fill="black"/>
<path d="M424.7 201.2L422.3 200.7C422.3 200.6 423.7 194 425.2 187.4C426.8 180.2 433.9 176.9 439.8 177.8C444.2 178.5 449.1 182 448.4 189.4C447.6 197.3 447 201 447 201.2L444.6 200.8C444.6 200.8 445.2 197 446 189.2C446.6 183.5 443 180.9 439.5 180.3C434.7 179.5 429 182.2 427.7 188C426.1 194.6 424.7 201.1 424.7 201.2Z" fill="#263238"/>
<path d="M456.4 273.7C458 272.6 459.6 271.5 461.3 270.5C462.9 269.5 464.6 268.5 466.3 267.5L466.5 267.4L466.7 267.6C468 268.6 469.3 269.6 470.6 270.6C471.9 271.6 473.1 272.6 474.4 273.7C473 272.9 471.6 272 470.3 271C468.9 270.1 467.6 269.1 466.3 268.2H466.7C465 269.2 463.3 270.1 461.6 271C459.9 272 458.2 272.9 456.4 273.7Z" fill="white"/>
<path d="M466.5 267.9C466.2 262.9 465.9 257.9 465.7 252.9C465.5 247.9 465.3 242.9 465.1 237.9C465 232.9 464.8 227.9 464.7 222.9L464.6 215.4C464.6 212.9 464.5 210.4 464.5 207.9C464.7 210.4 464.8 212.9 465 215.4L465.4 222.9C465.6 227.9 465.8 232.9 466 237.9C466.1 242.9 466.3 247.9 466.4 252.9C466.4 257.9 466.5 262.9 466.5 267.9Z" fill="white"/>
<path d="M423.5 204.3C425.323 204.3 426.8 202.822 426.8 201C426.8 199.177 425.323 197.7 423.5 197.7C421.677 197.7 420.2 199.177 420.2 201C420.2 202.822 421.677 204.3 423.5 204.3Z" fill="#263238"/>
<path d="M445.5 204.3C447.323 204.3 448.8 202.822 448.8 201C448.8 199.177 447.323 197.7 445.5 197.7C443.677 197.7 442.2 199.177 442.2 201C442.2 202.822 443.677 204.3 445.5 204.3Z" fill="#263238"/>
<path d="M363.6 53.0999L372.9 82C373.3 82.7999 372.9 83.5999 372 83.5999L356.9 84.5999C356.1 84.6999 355.1 83.9999 354.7 83.1999L345.4 54.2999C345 53.4999 345.4 52.7 346.3 52.7L361.4 51.7C362.2 51.7 363.2 52.2999 363.6 53.0999Z" fill="#A6A6A6"/>
<path d="M361.8 53.1998L371.1 82.0998C371.5 82.8998 371.1 83.6998 370.2 83.6998L355.1 84.6998C354.3 84.7998 353.3 84.0998 352.9 83.2998L343.6 54.3998C343.2 53.5998 343.6 52.7998 344.5 52.7998L359.6 51.7998C360.4 51.6998 361.4 52.3998 361.8 53.1998Z" fill="#DBDBDB"/>
<path d="M357.7 54.7999C357.8 55.4999 358.4 55.9999 359.1 55.9999C359.8 55.8999 360.3 55.2999 360.3 54.5999C360.2 53.8999 359.6 53.3999 358.9 53.3999C358.2 53.4999 357.7 54.0999 357.7 54.7999Z" fill="#455A64"/>
<path d="M415.3 94.4999C408.1 113.4 390.5 138.5 382.6 139.1C378.8 139.4 372.1 140.8 366.8 136.8C355.3 128.1 344.9 110.6 342.3 100.3C341.4 96.6999 358.8 87.2999 361.7 90.0999C368.4 96.6999 376.7 110 377.8 109.8C381.9 109.2 396.8 94.7999 407.3 84.5999C419.8 72.4999 418.1 86.8999 415.3 94.4999Z" fill="#F7A9A0"/>
<path d="M340.4 81.3C341.8 73.7 343.3 71.9 341 64.8C339.5 60.2 341.8 57.2 345.4 60.8C351.3 66.6 351.6 76.8 350.7 80.4L340.4 81.3Z" fill="#F7A9A0"/>
<path d="M343.4 103.5C343.4 103.5 339.3 93.2999 339.9 84.9999C340.3 79.2999 342.7 66.8999 358.1 59.2999C361.8 57.4999 368.2 57.4999 363.3 62.5999C359.8 66.1999 356.5 67.4999 354.9 69.8999C354.9 69.8999 363.1 70.8999 364.8 74.6999C365.5 76.3999 367.4 80.9999 368.4 84.7999C368.4 84.7999 367.6 85.1999 366.6 85.5999C366.6 85.5999 367.8 89.1999 365.5 94.5999L343.4 103.5Z" fill="#F7A9A0"/>
<path d="M341.2 79.5999C343.4 77.4999 348 73.0999 353 70.7999C358.6 68.2999 370.1 64.8999 371.9 69.0999C373.2 72.0999 369 73.7999 369 73.7999C369 73.7999 374 73.3999 374.6 76.3999C375.2 79.0999 371.8 80.1999 371.8 80.1999C371.8 80.1999 374.9 80.4999 374.9 83.1999C374.9 86.4999 368.4 85.3999 365.6 88.6999C365 89.5999 341.2 79.5999 341.2 79.5999Z" fill="#F7A9A0"/>
<path d="M354.7 77.2C357 75.5 363.3 73.2 368.9 73.7C369 73.7 369.1 73.8 369 73.8C362.7 74.5 357.1 76.3 354.7 77.2C354.7 77.3 354.7 77.2 354.7 77.2Z" fill="#263238"/>
<path d="M357.4 82.7998C359.6 81.5998 366.2 79.3998 371.8 80.1998C371.9 80.1998 372 80.2998 371.9 80.2998C365.3 80.6998 359.9 82.0998 357.4 82.7998Z" fill="#263238"/>
<path d="M367.7 96.4999L346.8 120.7C346.8 120.7 364.7 138.2 370.5 139.6C376.3 141 380.7 140.1 384.8 139C388.9 137.8 408.9 114.6 415.5 95.6999C422.1 76.6999 415 75.7999 403.8 87.2999C392.6 98.7999 378.7 110.1 378 109.3C377.3 108.4 367.7 96.4999 367.7 96.4999Z" fill="#FFC727"/>
<path opacity="0.1" d="M367.7 96.4999L346.8 120.7C346.8 120.7 364.7 138.2 370.5 139.6C376.3 141 380.7 140.1 384.8 139C388.9 137.8 408.9 114.6 415.5 95.6999C422.1 76.6999 415 75.7999 403.8 87.2999C392.6 98.7999 378.7 110.1 378 109.3C377.3 108.4 367.7 96.4999 367.7 96.4999Z" fill="black"/>
<path d="M371.5 103.2C370.6 104 363.7 111.8 362.1 113.6C360.6 115.3 354.6 122.6 353.1 124.4C353 124.5 353.1 124.6 353.2 124.5C354 123.6 354.9 122.8 355.7 121.9C356.5 121 361.2 115.7 362.7 114C364.2 112.2 371 104.2 371.6 103.3C371.7 103.2 371.6 103.1 371.5 103.2Z" fill="#263238"/>
<path d="M396.2 127.7L392.3 161.3C392.3 161.3 446.8 160.5 460.3 159.1C460.3 159.1 447.4 96.9 432.4 81.5C424.9 73.8 416.4 74.7 411.1 80.3C409.8 81.7 394 104 392.5 112.3C391.2 119.8 396.2 127.7 396.2 127.7Z" fill="#FFC727"/>
<path d="M394 122.3C393.4 120.4 393 118.4 393 116.4C393 112.3 394.2 108.3 396 104.7C397 102.6 398.2 100.6 399.2 98.5C399.2 98.4 399.1 98.4 399.1 98.5C398.1 99.9 397.3 101.4 396.5 102.8C396.5 102.7 396.5 102.7 396.6 102.6C396.8 101.8 397.1 101 397.4 100.2C397.4 100.1 397.3 100.1 397.3 100.1C397 100.9 396.7 101.6 396.4 102.4C396.2 102.9 396.1 103.4 396 103.9C395 105.7 394.2 107.6 393.5 109.6C392.2 113.5 392 117.7 393.2 121.7C393.5 122.7 394 123.7 394.4 124.7C394.9 125.8 395.6 126.8 396.2 127.8C396.2 127.9 396.4 127.8 396.3 127.7C395.3 126.1 394.6 124.2 394 122.3Z" fill="#263238"/>
<path d="M423.5 80.5998C423.1 81.5998 416.7 87.4998 412 86.3998C410.4 85.9998 412.1 77.4998 412.1 77.4998V76.7998L411.8 67.5998L423.5 62.8998L425.2 62.2998C425.2 62.2998 425.1 64.7998 425 67.9998C425 68.0998 425 68.2998 425 68.3998C425 68.5998 425 68.6998 425 68.8998C425 69.3998 425 69.8998 424.9 70.2998C424.9 70.6998 424.9 70.9998 424.8 71.3998C424.8 71.7998 424.7 72.1998 424.7 72.4998C424.4 76.3998 423.7 80.1998 423.5 80.5998Z" fill="#F7A9A0"/>
<path d="M424.9 67.8999C421 74.4999 414.8 76.2999 412.1 76.7999L411.8 67.5999L423.5 62.8999L425.2 62.2999C425.1 62.1999 425.1 64.7999 424.9 67.8999Z" fill="#263238"/>
<path d="M400.9 53.3C398.7 69.4 408.1 72.5 411.5 73C414.6 73.4001 425.4 74.5 429.3 58.7001C433.2 42.9001 426.4 36.8001 419.2 35.4001C412.1 34.1001 403.1 37.2 400.9 53.3Z" fill="#F7A9A0"/>
<path d="M405.2 50.0001C405.6 50.0001 405.9 50.0001 406.3 49.9001C406.7 49.9001 407.1 49.9001 407.4 49.6001C407.6 49.5001 407.6 49.1001 407.5 48.9001C407.2 48.4001 406.7 48.4001 406.1 48.4001C405.5 48.4001 405.1 48.6001 404.7 49.0001C404.4 49.3001 404.7 50.0001 405.2 50.0001Z" fill="#263238"/>
<path d="M415.8 51.6002C415.4 51.5002 415.1 51.4002 414.7 51.2002C414.3 51.0002 414 51.0002 413.7 50.6002C413.6 50.4002 413.6 50.1002 413.8 49.9002C414.2 49.5002 414.8 49.6002 415.2 49.8002C415.7 50.0002 416.1 50.2002 416.4 50.7002C416.8 51.1002 416.3 51.7002 415.8 51.6002Z" fill="#263238"/>
<path d="M413.1 55.3L413.2 55.4001C413 56.5001 412.9 57.8 413.9 58.3V58.4001C412.6 58.0001 412.7 56.3 413.1 55.3Z" fill="#263238"/>
<path d="M414.3 54.4001C416.1 54.6001 415.6 58.1001 414 58.0001C412.3 57.8001 412.8 54.2001 414.3 54.4001Z" fill="#263238"/>
<path d="M414.9 54.6C415.2 54.8 415.4 55.2 415.8 55.3C416.2 55.4 416.6 55.1 416.9 54.7H417C416.9 55.4 416.6 56 415.8 56.1C415.1 56.1 414.7 55.5 414.6 54.7C414.7 54.7 414.8 54.5 414.9 54.6Z" fill="#263238"/>
<path d="M406.8 54.3C406.8 54.3 406.7 54.3 406.8 54.3C406.6 55.5 406.3 56.7 405.3 57V57.1C406.5 57 406.9 55.4 406.8 54.3Z" fill="#263238"/>
<path d="M405.9 53.0002C404.1 52.7002 403.6 56.2002 405.2 56.5002C406.9 56.8002 407.4 53.3002 405.9 53.0002Z" fill="#263238"/>
<path d="M405.2 53.2002C404.9 53.3002 404.6 53.6002 404.2 53.6002C403.8 53.6002 403.6 53.1002 403.4 52.7002H403.3C403.2 53.4002 403.3 54.1002 403.9 54.3002C404.5 54.5002 405 54.0002 405.3 53.4002C405.4 53.3002 405.3 53.1002 405.2 53.2002Z" fill="#263238"/>
<path d="M411.7 64.1003C411.4 64.3003 411.1 64.7003 410.7 64.7003C410.3 64.7003 409.9 64.5003 409.5 64.3003C409.5 64.3003 409.4 64.3003 409.4 64.4003C409.7 64.8003 410.2 65.2003 410.8 65.1003C411.3 65.1003 411.6 64.6003 411.7 64.2003C411.8 64.1003 411.7 64.0003 411.7 64.1003Z" fill="#263238"/>
<path d="M407.6 59.5001C407.6 59.5001 407.2 61.1001 407 61.9001C407 62.0001 407.2 62.0001 407.4 62.1001C408.7 62.5001 410.2 62.2001 411.1 61.2001C411.2 61.1001 411.1 61.0001 411 61.1001C409.9 61.7001 408.7 61.8001 407.5 61.6001C407.5 61.4001 408.4 58.9001 408.2 58.8001C407.8 58.7001 406.9 58.9001 406.4 59.0001C407.2 55.6001 408.6 52.4001 409.4 49.0001C409.4 48.9001 409.3 48.8001 409.2 48.9001C407.5 52.2001 406.5 56.0001 405.5 59.5001C405.6 60.0001 407.3 59.6001 407.6 59.5001Z" fill="#263238"/>
<path d="M427.9 58.8C423.9 58.5 423.2 46.2 423.2 44.7C423.2 45.7 423.1 50.7 422.7 50.9C422.6 50.9 422.2 50.8 421.5 50.6C421.5 50 421.5 49.4 421.4 48.8C421.4 48.5 421.3 49.4 421.1 50.5C420.9 50.4 420.6 50.3 420.4 50.3C420.5 49.2 420.5 47.9 420.2 46.5C420.1 46 419.9 48.2 419.4 50C416.7 49.2 412.8 48 409.1 47.8C408.1 47.7 407.3 47.7 406.5 47.7C406.6 46.2 406.8 44.6 406.7 45C406.3 46 406.1 46.9 406 47.7C405.6 47.7 405.2 47.7 404.9 47.7C404.9 45.6 406 42.3 405.6 42.8C404.2 44.7 403.6 46.8 403.4 47.9C402 48.1 401.6 48.4 401.5 48C401.5 47.3 402.5 41.5 407.2 37.4C412.3 32.9 422.3 32.1 427.6 39.5C427.6 39.5 432.1 42.7 432.6 47.5C433 52.4 430.2 59 427.9 58.8Z" fill="#263238"/>
<path d="M426.6 59.6C426.6 59.6 430.4 54.7 432.6 56.1C434.8 57.5 431.8 64.7 429.1 65.5C426.4 66.4 425.5 63.8 425.5 63.8L426.6 59.6Z" fill="#F7A9A0"/>
<path d="M431.7 58.2C429.8 58.9 428.7 60.6 427.9 62.4C428.5 61.7 429.3 61.3999 430.2 62.0999C430.2 62.0999 430.2 62.2 430.1 62.2C429.3 62 428.8 62.1 428.2 62.7C427.8 63.1 427.5 63.6999 427.2 64.1999C427.1 64.3999 426.8 64.2999 426.9 64.0999C427 61.5999 429.1 58.3 431.7 58.2Z" fill="#263238"/>
<path d="M435.3 81.4999C454 96.7999 469.1 120.2 469.9 126.1C470.8 132.6 468.5 156.3 462.3 168.3C460.7 171.5 436.5 157 438.1 153.6C441.2 146.9 445.7 128.7 445.1 125.1C444.5 121.7 435 101.5 428.4 90.8999C422.5 81.0999 426.6 74.3999 435.3 81.4999Z" fill="#F7A9A0"/>
<path d="M419.6 182.4C421.2 184.9 424.2 184.1 424.2 184.1C424.2 184.1 424.2 186.5 425.7 188.1C427.5 190 431.2 188 431.2 188C431.2 188 431.7 190.4 433.5 192C435.4 193.6 439.4 192.2 439.4 192.2C439.4 192.2 441.1 194.2 443.6 194.4C448 194.8 452 189.4 454.6 186.1C457.2 182.7 461.4 170.7 462.4 168.5L440.9 151.7C440.9 151.7 425 163.5 422.5 167.9C420.5 171.5 417.8 179.6 419.6 182.4Z" fill="#F7A9A0"/>
<path d="M423.9 183.6C425.2 179.1 427.7 175.3 430 171.3C430.1 171.2 430.2 171.3 430.1 171.4C427.8 175.3 426.2 179.7 424.1 183.7C424 183.8 423.9 183.7 423.9 183.6Z" fill="#263238"/>
<path d="M431 187.6C431.3 186.6 432 185.7 432.5 184.8C433.1 183.9 433.7 182.9 434.4 182C435.7 180.2 437 178.3 438.4 176.6C438.5 176.5 438.6 176.6 438.5 176.7C437.2 178.5 436 180.4 434.8 182.3C434.2 183.2 433.6 184.2 433 185.2C432.5 186.1 432 187.1 431.2 187.8C431.1 187.9 430.9 187.8 431 187.6Z" fill="#263238"/>
<path d="M439.5 192C439.7 191.1 440.5 190.3 441 189.6C441.6 188.8 442.2 187.9 442.8 187.1C444 185.4 445.2 183.8 446.3 182C446.4 181.9 446.5 182 446.4 182.1C445.3 183.8 444.2 185.6 443 187.3C442.4 188.2 441.9 189 441.3 189.8C440.8 190.6 440.3 191.5 439.5 192Z" fill="#263238"/>
<path d="M426.3 88.8999C429.9 99.0999 444.5 123.3 444.4 125.6C444.3 127.9 437.2 152.2 437.2 152.2L466.1 169.7C466.1 169.7 472.5 136.6 470.1 125.1C468.3 116.3 447.9 90.5999 438 82.6999C428.1 74.8999 421.7 75.8999 426.3 88.8999Z" fill="#FFC727"/>
<path opacity="0.1" d="M426.3 88.8999C429.9 99.0999 444.5 123.3 444.4 125.6C444.3 127.9 437.2 152.2 437.2 152.2L466.1 169.7C466.1 169.7 472.5 136.6 470.1 125.1C468.3 116.3 447.9 90.5999 438 82.6999C428.1 74.8999 421.7 75.8999 426.3 88.8999Z" fill="black"/>
<path d="M444.5 124.2C444.2 122.5 443.2 120.9 442.4 119.4C440.6 116 438.8 112.6 436.8 109.3C435.7 107.5 431.4 100.4 430.2 98.0999C430.1 97.8999 429.8 98.0999 429.9 98.2999C430.6 99.6999 432.6 103.3 434.1 105.9C433.9 105.6 433.7 105.4 433.4 105.1C433 104.6 432.5 104.1 432.1 103.7C431.6 103.2 431 102.8 430.6 102.2C430.5 102.1 430.4 102.2 430.5 102.3C431.3 103.4 432.2 104.3 433.1 105.3C433.5 105.8 434 106.3 434.4 106.8C434.7 107.1 435 107.5 435.3 107.8C435.4 107.9 435.4 108 435.5 108.1C437.4 111.4 439.1 114.7 440.9 118C441.8 119.6 442.8 121.2 443.4 122.9C443.7 123.7 443.9 124.5 443.9 125.4C443.8 126.4 443.5 127.4 443.3 128.3C442.3 131.9 441.4 135.5 440.4 139.2C439.9 141.3 439.3 143.4 438.8 145.5C438.3 147.6 437.7 149.7 437.4 151.8C437.4 151.9 437.6 152.1 437.7 151.9C438.4 150.1 438.9 148.2 439.4 146.4C439.9 144.5 440.5 142.6 441 140.8C442 137 443 133.2 444 129.3C444.2 127.7 444.8 126 444.5 124.2Z" fill="#263238"/>
<path d="M465.8 162.2C458 156.7 449.8 151.6 441.4 146.9C441.3 146.9 441.2 147 441.3 147C449.1 152.5 457.2 157.7 465.6 162.3C465.8 162.5 465.9 162.3 465.8 162.2Z" fill="#263238"/>
<path d="M163.7 309.2H207.8C213.6 309.2 218.3 304.5 218.3 298.7V216.1C218.3 213.1 220.4 205.5 229.5 205.5H174.1C168.3 205.5 163.6 210.2 163.6 216V309.2H163.7Z" fill="#FFC727"/>
<path opacity="0.1" d="M163.7 309.2H207.8C213.6 309.2 218.3 304.5 218.3 298.7V216.1C218.3 213.1 220.4 205.5 229.5 205.5H174.1C168.3 205.5 163.6 210.2 163.6 216V309.2H163.7Z" fill="black"/>
<g opacity="0.1">
<path opacity="0.1" d="M211.3 216.1H171.7V217.9H211.3V216.1Z" fill="black"/>
<path opacity="0.1" d="M211.3 221.2H171.7V223H211.3V221.2Z" fill="black"/>
<path opacity="0.1" d="M211.3 226.3H171.7V228.1H211.3V226.3Z" fill="black"/>
<path opacity="0.1" d="M211.3 231.4H171.7V233.2H211.3V231.4Z" fill="black"/>
<path opacity="0.1" d="M211.3 236.5H171.7V238.3H211.3V236.5Z" fill="black"/>
<path opacity="0.1" d="M211.3 241.6H171.7V243.4H211.3V241.6Z" fill="black"/>
<path opacity="0.1" d="M211.3 246.7H171.7V248.5H211.3V246.7Z" fill="black"/>
<path opacity="0.1" d="M211.3 251.8H171.7V253.6H211.3V251.8Z" fill="black"/>
<path opacity="0.1" d="M211.3 257H171.7V258.8H211.3V257Z" fill="black"/>
<path opacity="0.1" d="M211.3 262.1H171.7V263.9H211.3V262.1Z" fill="black"/>
<path opacity="0.1" d="M211.3 267.2H171.7V269H211.3V267.2Z" fill="black"/>
<path opacity="0.1" d="M211.3 272.3H171.7V274.1H211.3V272.3Z" fill="black"/>
<path opacity="0.1" d="M211.3 277.4H171.7V279.2H211.3V277.4Z" fill="black"/>
<path opacity="0.1" d="M211.3 282.5H171.7V284.3H211.3V282.5Z" fill="black"/>
<path opacity="0.1" d="M211.3 287.6H171.7V289.4H211.3V287.6Z" fill="black"/>
<path opacity="0.1" d="M211.3 292.7H171.7V294.5H211.3V292.7Z" fill="black"/>
</g>
<path d="M121.1 274.3V374H154.5V374.1C154.5 379.9 159.1 384.6 164.9 384.7H165.3C165.7 384.7 166 384.7 166.4 384.6L168.4 384.2C168.9 384 169.4 383.8 169.8 383.6C170 383.5 170.3 383.4 170.5 383.2C170.6 383.1 170.7 383.1 170.8 383C171.1 382.8 171.4 382.6 171.7 382.4L171.8 382.3C172 382.1 172.2 382 172.4 381.8C172.5 381.7 172.6 381.6 172.7 381.5C173.9 380.3 174.8 378.8 175.3 377.2V377.1C175.4 376.8 175.4 376.6 175.5 376.3C175.6 376 175.6 375.6 175.7 375.3C175.7 375.1 175.7 375 175.7 374.8C175.7 374.7 175.7 374.7 175.7 374.6C175.7 374.4 175.7 374.2 175.7 374V274.2C175.7 271.2 177.8 263.6 186.9 263.6H131.6C125.8 263.8 121.1 268.5 121.1 274.3Z" fill="#FFC727"/>
<g opacity="0.1">
<path opacity="0.1" d="M168 270.4H128.4V272.2H168V270.4Z" fill="black"/>
<path opacity="0.1" d="M171.7 265.7H132.1V267.5H171.7V265.7Z" fill="black"/>
<path opacity="0.1" d="M168 275.5H128.4V277.3H168V275.5Z" fill="black"/>
<path opacity="0.1" d="M168 280.6H128.4V282.4H168V280.6Z" fill="black"/>
<path opacity="0.1" d="M168 285.8H128.4V287.6H168V285.8Z" fill="black"/>
<path opacity="0.1" d="M168 290.9H128.4V292.7H168V290.9Z" fill="black"/>
<path opacity="0.1" d="M168 296H128.4V297.8H168V296Z" fill="black"/>
<path opacity="0.1" d="M168 301.1H128.4V302.9H168V301.1Z" fill="black"/>
<path opacity="0.1" d="M168 306.2H128.4V308H168V306.2Z" fill="black"/>
<path opacity="0.1" d="M168 311.3H128.4V313.1H168V311.3Z" fill="black"/>
<path opacity="0.1" d="M168 316.4H128.4V318.2H168V316.4Z" fill="black"/>
<path opacity="0.1" d="M168 321.5H128.4V323.3H168V321.5Z" fill="black"/>
<path opacity="0.1" d="M168 326.7H128.4V328.5H168V326.7Z" fill="black"/>
<path opacity="0.1" d="M168 331.8H128.4V333.6H168V331.8Z" fill="black"/>
<path opacity="0.1" d="M168 336.9H128.4V338.7H168V336.9Z" fill="black"/>
<path opacity="0.1" d="M168 342H128.4V343.8H168V342Z" fill="black"/>
<path opacity="0.1" d="M168 347.1H128.4V348.9H168V347.1Z" fill="black"/>
<path opacity="0.1" d="M168 352.2H128.4V354H168V352.2Z" fill="black"/>
<path opacity="0.1" d="M168 357.3H128.4V359.1H168V357.3Z" fill="black"/>
<path opacity="0.1" d="M168 364.7H148.2V368.9H168V364.7Z" fill="black"/>
</g>
<path d="M207.5 309.2C207.6 309.2 207.7 309.2 207.8 309.2C208.2 309.2 208.6 309.2 209 309.1C208.6 309.1 208.3 309.2 207.9 309.2H207.5Z" fill="#FFC727"/>
<path d="M229 205.5C223.1 205.5 218.4 210.3 218.4 216.1V236.1H239.6V216.1C239.6 210.3 234.8 205.5 229 205.5Z" fill="#FFC727"/>
<path opacity="0.2" d="M229 205.5C223.1 205.5 218.4 210.3 218.4 216.1V236.1H239.6V216.1C239.6 210.3 234.8 205.5 229 205.5Z" fill="black"/>
<path d="M175.7 274.4V309.3H196.9H207.3C201.6 309.2 196.9 304.5 196.9 298.7V274.4C196.9 268.5 192.1 263.8 186.3 263.8C183.4 263.8 180.7 265 178.8 266.9C176.9 268.8 175.7 271.4 175.7 274.4Z" fill="#FFC727"/>
<path opacity="0.2" d="M175.7 274.4V309.3H196.9H207.3C201.6 309.2 196.9 304.5 196.9 298.7V274.4C196.9 268.5 192.1 263.8 186.3 263.8C183.4 263.8 180.7 265 178.8 266.9C176.9 268.8 175.7 271.4 175.7 274.4Z" fill="black"/>
<path d="M105.6 374V374.1C105.6 379.9 110.2 384.6 116 384.7H164.9C159.2 384.6 154.5 379.9 154.5 374.1V374H105.6Z" fill="#FFC727"/>
<path opacity="0.2" d="M105.6 374V374.1C105.6 379.9 110.2 384.6 116 384.7H164.9C159.2 384.6 154.5 379.9 154.5 374.1V374H105.6Z" fill="black"/>
</g>
<defs>
<clipPath id="clip0">
<rect width="452.1" height="412.6" fill="white" transform="translate(66)"/>
</clipPath>
</defs>
</svg> 